<?xml version="1.0" encoding="utf-8"?>
<!-- Generator: Adobe Illustrator 16.0.0, SVG Export Plug-In . SVG Version: 6.00 Build 0)  -->
<!DOCTYPE svg PUBLIC "-//W3C//DTD SVG 1.1//EN" "http://www.w3.org/Graphics/SVG/1.1/DTD/svg11.dtd">
<svg version="1.1" id="Capa_1" xmlns="http://www.w3.org/2000/svg" xmlns:xlink="http://www.w3.org/1999/xlink" x="0px" y="0px"
	 width="709.31px" height="231.963px" viewBox="0 0 709.31 231.963" enable-background="new 0 0 709.31 231.963"
	 xml:space="preserve">
<g opacity="0.8">
	<g>
		<path fill="#FFFFFF" d="M3.334,0.491c-2.181-1.664-4.4,1.243-2.774,3.635C13.09,14.839,23.4,28.459,36.484,38.445
			c7.996,6.104,17.427-6.254,9.432-12.356C32.831,16.102,17.529,9.024,3.334,0.491z"/>
		<path fill="#FFFFFF" d="M90.81,59.202c-2.352-2.946-8.588-0.805-6.618,4.15c4.323,7.9,9.2,15.074,15.915,21.349
			c5.986,5.72,11.42,12.167,19.453,13.697c4.017,0.765,7.346-3.597,5.549-7.269c-2.143-6.236-7.787-9.395-12.874-13.276
			C104.239,71.751,97.525,65.477,90.81,59.202z"/>
		<path fill="#FFFFFF" d="M189.285,136.658c-9.488-2.639-17.694-5.451-25.519-10.272c-4.916-2.602-9.909,3.94-5.548,7.27
			c6.542,4.992,13.085,9.986,19.454,13.696c7.098,4.267,16.93,9.47,25.173,7.709c3.845-0.516,7.003-6.158,3.922-9.66
			C202.064,139.51,196.038,138.362,189.285,136.658z"/>
		<path fill="#FFFFFF" d="M270.018,180.344c-4.953-3.12-12.119-1.393-17.777-2.595c-7.475-0.996-13.438-4.924-16.986-11.885
			c-2.33-4.339-9.188,0.117-6.961,3.547c3.752,8.777,9.922,14.521,17.704,18.246c7.68,2.813,19.096,6.125,25.75-0.147
			C273.36,185.488,272.95,181.854,270.018,180.344z"/>
		<path fill="#FFFFFF" d="M360.073,192.586c-10.973-10.059-29.261-7.315-42.977-6.401c-6.401,0-6.401,9.145,0,10.059
			c6.4,0,12.802,0.913,19.202,1.829c6.401,0.916,13.716,3.657,20.117,2.743C360.073,200.816,363.731,196.243,360.073,192.586z"/>
		<path fill="#FFFFFF" d="M458.828,190.757c-15.545-9.144-37.489-6.4-53.948,0c-6.401,2.743-3.658,11.888,2.743,10.057
			c16.459-3.657,32.004,0,48.464,0.915C462.487,202.646,464.314,193.5,458.828,190.757z"/>
		<path fill="#FFFFFF" d="M551.184,186.185c-14.629-4.571-31.091-1.828-45.72-0.914c-7.315,0-7.315,10.975,0,10.975
			c14.629,0.913,32.004,3.656,45.72-0.915C556.671,194.415,556.671,188.014,551.184,186.185z"/>
		<path fill="#FFFFFF" d="M638.053,182.528c-6.402-6.399-14.632-3.656-22.861-2.743c-9.143,0.914-18.288,2.743-27.431,5.486
			c-6.402,2.743-4.574,12.802,2.743,10.975c9.143-2.743,18.288-3.658,27.431-3.658c7.315,0,13.716,1.829,19.202-3.657
			C639.881,188.014,639.881,184.357,638.053,182.528z"/>
		<path fill="#FFFFFF" d="M702.062,176.126c-21.031-5.487-35.663-22.861-55.779-31.091c-7.314-2.743-10.973,8.229-5.486,12.802
			c13.717,9.144,25.603,21.945,40.234,31.09c-5.486,4.573-10.973,9.144-17.375,13.718c-6.399,4.572-16.46,6.399-21.031,12.8
			c-2.744,3.658-3.656,9.145,0,12.802c17.375,15.545,52.122-21.945,63.096-33.834C712.123,188.014,709.379,177.955,702.062,176.126z
			"/>
	</g>
</g>
</svg>
