<svg xmlns="http://www.w3.org/2000/svg" viewBox="0 0 512 512" enable-background="new 0 0 512 512"><path d="M416 40h-320c-22.055 0-40 17.945-40 40v392c0 22.055 17.945 40 40 40h320c22.055 0 40-17.945 40-40v-392c0-22.055-17.945-40-40-40z" fill="#996459"/><path d="M415.6 72c4.639 0 8.4 3.728 8.4 8.327v391.347c0 4.599-3.761 8.327-8.4 8.327h-319.2c-4.639 0-8.4-3.728-8.4-8.327v-391.348c0-4.598 3.761-8.326 8.4-8.326h319.2z" fill="#fff"/><path d="M200 216h-48c-8.82 0-16-7.18-16-16v-48c0-8.82 7.18-16 16-16h48c8.82 0 16 7.18 16 16v48c0 8.82-7.18 16-16 16zm-48-64v48h48.016l-.016-48h-48z" fill="#B4B6BC"/><path d="M264 160h-24c-4.422 0-8-3.578-8-8s3.578-8 8-8h24c4.422 0 8 3.578 8 8s-3.578 8-8 8z" fill="#5C546A"/><path d="M360 192h-120c-4.422 0-8-3.578-8-8s3.578-8 8-8h120c4.422 0 8 3.578 8 8s-3.578 8-8 8z" fill="#868491"/><path d="M320 272h-80c-4.422 0-8-3.578-8-8s3.578-8 8-8h80c4.422 0 8 3.578 8 8s-3.578 8-8 8z" fill="#5C546A"/><path d="M360 304h-120c-4.422 0-8-3.578-8-8s3.578-8 8-8h120c4.422 0 8 3.578 8 8s-3.578 8-8 8z" fill="#868491"/><path d="M272 376h-32c-4.422 0-8-3.578-8-8s3.578-8 8-8h32c4.422 0 8 3.578 8 8s-3.578 8-8 8z" fill="#5C546A"/><path d="M360 408h-120c-4.422 0-8-3.578-8-8s3.578-8 8-8h120c4.422 0 8 3.578 8 8s-3.578 8-8 8zm-72-368c-4.422 0-8-3.578-8-8v-8c0-4.414-3.586-8-8-8h-32c-4.414 0-8 3.586-8 8v8c0 4.422-3.578 8-8 8s-8-3.578-8-8v-8c0-13.234 10.766-24 24-24h32c13.234 0 24 10.766 24 24v8c0 4.422-3.578 8-8 8z" fill="#868491"/><path d="M344 24h-176c-4.418 0-8 3.582-8 8v24c0 22.091 17.909 40 40 40h112c22.091 0 40-17.909 40-40v-24c0-4.418-3.582-8-8-8zm-144 296h-48c-8.82 0-16-7.18-16-16v-48c0-8.82 7.18-16 16-16h48c8.82 0 16 7.18 16 16v48c0 8.82-7.18 16-16 16zm-48-64v48h48.016l-.016-48h-48zm48 168h-48c-8.82 0-16-7.18-16-16v-48c0-8.82 7.18-16 16-16h48c8.82 0 16 7.18 16 16v48c0 8.82-7.18 16-16 16zm-48-64v48h48.016l-.016-48h-48z" fill="#B4B6BC"/><path d="M184 296c-2.047 0-4.094-.781-5.656-2.344l-16-16c-3.125-3.125-3.125-8.188 0-11.313s8.188-3.125 11.313 0l10.343 10.344 34.344-34.344c3.125-3.125 8.188-3.125 11.313 0s3.125 8.187 0 11.312l-40 40c-1.563 1.564-3.61 2.345-5.657 2.345z" fill="#FF4F19"/></svg>