<svg xmlns="http://www.w3.org/2000/svg" viewBox="0 0 508 508" enable-background="new 0 0 508 508"><path fill="#FFD15C" d="M417.4 245.5l49.3-37.4-49.3-37.5 28.3-55.1-60.7-12.2 1.6-62-59.9 15.3-25.4-56.6-47.3 40-47.3-40-25.4 56.6-59.9-15.4 1.6 62.1-60.7 12.2 28.3 55.1-49.3 37.5 49.3 37.4-28.3 55.2 60.7 12.2-1.6 62 59.9-15.3 25.4 56.6 47.3-40 47.3 40 25.4-56.6 59.9 15.3-1.6-62 60.7-12.2z"/><g fill="#FF7058"><path d="M181.3 359.6l-59.9 15.3 1.4-56.1-11.8 21-64.7 114.5 73.9-20.5 20.5 74.2 52.9-93.5 6.8-12.2zM396.9 336.1l-11.8-21 1.5 59.8-59.9-15.3-18.3 40.7 6.9 12.2 54 95.5 20.5-74.2 73.9 20.5z"/></g><g fill="#F1543F"><path d="M200.4 402.3l-6.8 12.2-18.7-41.6-65.2 16.7 1.3-49.8 11.8-21-1.4 56.1 59.9-15.3zM398.3 389.6l-65.2-16.7-17.8 39.6-6.9-12.2 18.3-40.7 59.9 15.3-1.5-59.8 11.8 21z"/></g><ellipse cx="254" cy="208.1" rx="132.1" ry="132.5" fill="#F8B64C"/><path fill="#F2F2F2" d="M222.5 276.3l-49.9-50 23.1-23.2 26.8 26.9 89.8-90.2 23.1 23.2z"/></svg>