<svg xmlns="http://www.w3.org/2000/svg" viewBox="0 0 57 57" enable-background="new 0 0 57 57"><g><path d="M22 51v-16c0-3.314 4.253-6 9.5-6 1.237 0 2.416.154 3.5.426v-29.426h-32v56h23.253c-2.562-1.075-4.253-2.912-4.253-5" fill="#6E8C61"/><path d="M8 21.094c2.301-3.656 6.361-6.094 11-6.094s8.699 2.437 11 6.094v-10.119c-.165.015-.331.025-.5.025-3.038 0-5.5-2.463-5.5-5.5 0-.169.01-.335.025-.5h-10.05c.015.165.025.331.025.5 0 3.037-2.462 5.5-5.5 5.5-.169 0-.335-.01-.5-.025v10.119z" fill="#E9E8D3"/><path d="M22 43v-2.356c-.963.229-1.966.356-3 .356-4.639 0-8.699-2.437-11-6.094v10.119c.165-.015.331-.025.5-.025 3.038 0 5.5 2.462 5.5 5.5 0 .169-.01.335-.025.5h8.025v-8z" fill="#E9E8D3"/><path d="M27 5.5c0-1.379 1.121-2.5 2.5-2.5s2.5 1.121 2.5 2.5-1.121 2.5-2.5 2.5-2.5-1.121-2.5-2.5" fill="#E9E8D3"/><path d="M6 5.5c0-1.379 1.121-2.5 2.5-2.5s2.5 1.121 2.5 2.5-1.121 2.5-2.5 2.5-2.5-1.121-2.5-2.5" fill="#E9E8D3"/><path d="M6 50.5c0-1.379 1.121-2.5 2.5-2.5s2.5 1.121 2.5 2.5-1.121 2.5-2.5 2.5-2.5-1.121-2.5-2.5" fill="#E9E8D3"/><path d="M41 35c0 3.314-4.253 6-9.5 6s-9.5-2.686-9.5-6 4.253-6 9.5-6 9.5 2.686 9.5 6" fill="#FCC62D"/><path d="M31.5 53c-5.247 0-9.5-2.686-9.5-6v4c0 3.314 4.253 6 9.5 6s9.5-2.686 9.5-6v-4c0 3.314-4.253 6-9.5 6" fill="#D19D18"/><path d="M31.5 49c-5.247 0-9.5-2.686-9.5-6v4c0 3.314 4.253 6 9.5 6s9.5-2.686 9.5-6v-4c0 3.314-4.253 6-9.5 6" fill="#E4AF18"/><path d="M31.5 45c-5.247 0-9.5-2.686-9.5-6v4c0 3.314 4.253 6 9.5 6s9.5-2.686 9.5-6v-4c0 3.314-4.253 6-9.5 6" fill="#D19D18"/><path d="M31.5 41c-5.247 0-9.5-2.686-9.5-6v4c0 3.314 4.253 6 9.5 6s9.5-2.686 9.5-6v-4c0 3.314-4.253 6-9.5 6" fill="#E4AF18"/><path d="M54 23c0 3.314-4.253 6-9.5 6s-9.5-2.686-9.5-6 4.253-6 9.5-6 9.5 2.686 9.5 6" fill="#FCC62D"/><path d="M24.919 30.679c2.099-3.75.081-7.679.081-7.679-.853-.249-3.352.496-3.639 1.306-.887-.809-2.065-1.306-3.361-1.306-1.625 0-2.313 1.7-2.807 1.871-.242.083-.493.125-.744.129-.746.012-1.444-.373-1.946-.924l-3.726-4.089c-1.734 2.209-2.777 4.987-2.777 8.013s1.043 5.804 2.776 8.013l3.693-4.059c.607-.666 1.501-1.07 2.388-.915l.375.096c.321.108 1.893 1.783 2.238 1.822 1.048 2.471 3.334 1.482 4.903.391.468-1.031 1.355-1.946 2.546-2.669" fill="#E9E8D3"/><path d="M44.5 53c-1.356 0-2.642-.182-3.809-.505-.455 1.117-1.401 2.106-2.691 2.872 1.7 1.01 3.982 1.633 6.5 1.633 5.247 0 9.5-2.686 9.5-6v-4c0 3.314-4.253 6-9.5 6" fill="#E4AF18"/><path d="M44.5 49c-1.237 0-2.416-.154-3.5-.426v2.426c0 .517-.115 1.016-.309 1.495 1.167.323 2.453.505 3.809.505 5.247 0 9.5-2.686 9.5-6v-4c0 3.314-4.253 6-9.5 6" fill="#D19D18"/><path d="M44.5 45c-1.237 0-2.416-.154-3.5-.426v4c1.084.272 2.263.426 3.5.426 5.247 0 9.5-2.686 9.5-6v-4c0 3.314-4.253 6-9.5 6" fill="#E4AF18"/><path d="M44.5 41c-1.237 0-2.416-.154-3.5-.426v4c1.084.272 2.263.426 3.5.426 5.247 0 9.5-2.686 9.5-6v-4c0 3.314-4.253 6-9.5 6" fill="#D19D18"/><path d="M44.5 37c-1.237 0-2.416-.154-3.5-.426v4c1.084.272 2.263.426 3.5.426 5.247 0 9.5-2.686 9.5-6v-4c0 3.314-4.253 6-9.5 6" fill="#E4AF18"/><path d="M44.5 33c-1.648 0-3.198-.266-4.549-.732.666.82 1.049 1.747 1.049 2.732v1.574c1.084.272 2.263.426 3.5.426 5.247 0 9.5-2.686 9.5-6v-4c0 3.314-4.253 6-9.5 6" fill="#D19D18"/><path d="M44.5 29c-5.247 0-9.5-2.686-9.5-6v4c0 .985.383 1.912 1.049 2.732 1.671.577 3.031 1.464 3.902 2.536 1.351.466 2.901.732 4.549.732 5.247 0 9.5-2.686 9.5-6v-4c0 3.314-4.253 6-9.5 6" fill="#E4AF18"/><path d="M44 17.016v-17.016h-3v17.426c.936-.235 1.945-.375 3-.41" fill="#607B53"/><path d="M41 17.426v-17.426h-3v18.633c.864-.514 1.878-.926 3-1.207" fill="#546949"/><path d="M38 18.632v-18.631h-3v23c0-1.725 1.157-3.274 3-4.369" fill="#607B53"/></g></svg>