<svg xmlns="http://www.w3.org/2000/svg" viewBox="0 0 512 512" enable-background="new 0 0 512 512"><path d="M363.965 56.475c0-27.538-21.881-50.542-49.416-50.905-26.562-.349-48.515 20.086-50.573 46.047-10.743 49.396-34.276 65.225-120.774 154.295l-26.332.003c-9.18 0-16.696 7.477-16.696 16.696v233.739c0 9.219 7.474 16.693 16.693 16.693h294.959c37.53-.022 62.793-40.435 43.4-74.637 21.714-13.764 30.639-42.193 16.696-66.783 21.714-13.764 30.639-42.193 16.696-66.783 14.01-8.88 23.371-24.411 23.383-42.23-.018-27.668-22.419-50.07-50.087-50.087h-121.534c13.845-41.532 23.585-71.568 23.585-116.048z" fill="#FFDAB3"/><path d="M116.87 172.523h-100.174c-9.181 0-16.696 7.478-16.696 16.696v300.522c0 9.214 7.482 16.693 16.696 16.693h100.174c9.214 0 16.696-7.48 16.696-16.693v-300.522c-.001-9.218-7.516-16.696-16.696-16.696z" fill="#32BBFF"/><path d="M116.87 172.523h-50.087v333.911h50.087c9.214 0 16.696-7.482 16.696-16.693v-300.522c-.001-9.218-7.517-16.696-16.696-16.696z" fill="#2C9FD9"/><path d="M461.913 172.523h-27.826l-300.52 300.519h278.259c37.53-.022 62.793-40.435 43.4-74.637 21.714-13.764 30.639-42.193 16.696-66.783 21.714-13.764 30.639-42.193 16.696-66.783 14.01-8.88 23.371-24.411 23.383-42.23-.02-27.667-22.42-50.069-50.088-50.086z" fill="#FFC3A6"/></svg>