<svg version="1.2" baseProfile="tiny" xmlns="http://www.w3.org/2000/svg" width="76.243" height="85.04" viewBox="103.608 0 76.243 85.04"><path fill="#F0EDE0" d="M106.541 73.51l8.797 8.797 8.797-8.797 8.798 8.797 8.797-8.797 8.797 8.797 8.798-8.797 8.797 8.797 8.797-8.797 2.932 2.932v-73.31h-76.243v73.31z"/><path fill="#D4C3A5" d="M162.257 58.848h-21.994c-.809 0-1.466-.656-1.466-1.467s.657-1.467 1.466-1.467h21.994c.809 0 1.466.656 1.466 1.467s-.657 1.467-1.466 1.467zM169.587 58.848c-.381 0-.762-.162-1.041-.426-.264-.278-.425-.66-.425-1.041 0-.397.161-.764.425-1.041.558-.543 1.525-.543 2.082 0 .265.277.426.644.426 1.041 0 .381-.161.763-.426 1.041-.277.264-.659.426-1.041.426zM169.587 38.321h-21.992c-.81 0-1.467-.655-1.467-1.466s.657-1.466 1.467-1.466h21.992c.811 0 1.467.655 1.467 1.466s-.656 1.466-1.467 1.466zM169.587 48.584h-14.662c-.809 0-1.466-.656-1.466-1.467s.657-1.466 1.466-1.466h14.662c.811 0 1.467.655 1.467 1.466s-.656 1.467-1.467 1.467zM143.197 48.584h-2.933c-.809 0-1.466-.656-1.466-1.467s.657-1.466 1.466-1.466h2.933c.809 0 1.466.655 1.466 1.466s-.658 1.467-1.466 1.467zM162.257 28.057h-21.994c-.809 0-1.466-.655-1.466-1.466 0-.811.657-1.466 1.466-1.466h21.994c.809 0 1.466.655 1.466 1.466 0 .811-.657 1.466-1.466 1.466zM169.587 28.057c-.381 0-.762-.161-1.041-.425-.264-.278-.425-.66-.425-1.041 0-.397.161-.764.425-1.041.543-.543 1.54-.543 2.082 0 .265.277.426.66.426 1.041 0 .381-.161.762-.426 1.041-.277.264-.644.425-1.041.425zM141.73 38.321c-.381 0-.762-.161-1.041-.425-.264-.279-.425-.645-.425-1.041 0-.397.162-.764.425-1.041.557-.542 1.54-.542 2.082 0 .264.277.426.644.426 1.041 0 .396-.162.762-.426 1.041-.279.264-.66.425-1.041.425zM149.061 48.584c-.382 0-.763-.162-1.041-.426-.264-.278-.425-.66-.425-1.041s.161-.764.425-1.041c.558-.542 1.54-.542 2.082 0 .264.264.425.645.425 1.041s-.161.763-.425 1.041c-.278.264-.659.426-1.041.426z"/><g fill="#A5A5A4"><path d="M108.007 14.861c-.381 0-.763-.161-1.041-.425-.264-.278-.425-.66-.425-1.041 0-.381.161-.764.425-1.041.557-.542 1.54-.542 2.082 0 .264.277.425.66.425 1.041 0 .381-.162.763-.425 1.041-.278.264-.66.425-1.041.425zM168.371 13.395c0-.806.646-1.466 1.467-1.466.807 0 1.466.66 1.466 1.466 0 .807-.659 1.466-1.466 1.466-.822 0-1.467-.659-1.467-1.466zm-5.63 0c0-.806.659-1.466 1.466-1.466.821 0 1.467.66 1.467 1.466 0 .807-.646 1.466-1.467 1.466-.807 0-1.466-.659-1.466-1.466zm-5.616 0c0-.806.66-1.466 1.467-1.466s1.467.66 1.467 1.466c0 .807-.66 1.466-1.467 1.466s-1.467-.659-1.467-1.466zm-5.616 0c0-.806.646-1.466 1.467-1.466.807 0 1.466.66 1.466 1.466 0 .807-.659 1.466-1.466 1.466-.821 0-1.467-.659-1.467-1.466zm-5.63 0c0-.806.659-1.466 1.466-1.466.821 0 1.467.66 1.467 1.466 0 .807-.646 1.466-1.467 1.466-.806 0-1.466-.659-1.466-1.466zm-5.615 0c0-.806.66-1.466 1.466-1.466.807 0 1.467.66 1.467 1.466 0 .807-.66 1.466-1.467 1.466s-1.466-.659-1.466-1.466zm-5.616 0c0-.806.646-1.466 1.466-1.466.807 0 1.466.66 1.466 1.466 0 .807-.66 1.466-1.466 1.466-.821 0-1.466-.659-1.466-1.466zm-5.63 0c0-.806.66-1.466 1.466-1.466.821 0 1.466.66 1.466 1.466 0 .807-.645 1.466-1.466 1.466-.806 0-1.466-.659-1.466-1.466zm-5.616 0c0-.806.66-1.466 1.466-1.466.806 0 1.466.66 1.466 1.466 0 .807-.66 1.466-1.466 1.466-.806 0-1.466-.659-1.466-1.466zm-5.615 0c0-.806.646-1.466 1.466-1.466.807 0 1.466.66 1.466 1.466 0 .807-.66 1.466-1.466 1.466-.821 0-1.466-.659-1.466-1.466zm-5.63 0c0-.806.66-1.466 1.466-1.466.821 0 1.466.66 1.466 1.466 0 .807-.645 1.466-1.466 1.466-.807 0-1.466-.659-1.466-1.466zM175.453 14.861c-.396 0-.762-.161-1.041-.44-.264-.264-.426-.645-.426-1.026s.162-.764.426-1.041c.527-.542 1.525-.542 2.082 0 .264.277.426.66.426 1.041 0 .381-.162.763-.426 1.041-.279.264-.661.425-1.041.425z"/></g><g fill="#24AE5F"><path d="M129.655 36.686c-3.918-1.665-8.251-1.705-12.2-.112s-7.041 4.629-8.707 8.547c-1.666 3.918-1.706 8.251-.113 12.199 1.593 3.949 4.628 7.041 8.546 8.707 3.919 1.665 8.251 1.706 12.2.113s7.041-4.628 8.707-8.547 1.705-8.251.113-12.199c-1.593-3.949-4.628-7.041-8.546-8.708zm-.654 28.511c-7.631 3.078-16.344-.626-19.422-8.257-3.079-7.631.625-16.344 8.257-19.423 7.631-3.077 16.344.626 19.422 8.257 3.078 7.631-.625 16.344-8.257 19.423zM130.649 42.146c.163-.229.111-.546-.118-.71-3.425-2.446-7.792-2.971-11.681-1.402-3.889 1.569-6.669 4.977-7.438 9.115-.051.275.131.541.407.592.099.019.196.008.283-.027.156-.063.278-.201.31-.38.705-3.794 3.253-6.918 6.818-8.355 3.565-1.439 7.568-.958 10.708 1.286.23.162.548.11.711-.119zM132.627 52.741c.261-.105.387-.402.281-.663l-3.105-7.699c-.556-1.377-2.126-2.044-3.502-1.489-1.215.49-1.878 1.772-1.635 3.013l-.336.135-.946-2.346.444-.179c.26-.105.386-.401.281-.662-.105-.262-.401-.388-.662-.282l-.861.348-.027.013-.027.01-.702.282c-.677.273-1.005 1.046-.732 1.723l.833 2.063-.458.185-.832-2.063c-.273-.677-1.045-1.006-1.722-.732l-.702.283-.026.013-.027.009-.861.348c-.261.105-.387.401-.282.662.105.261.402.388.662.282l.443-.18.947 2.347-.336.136c-.686-1.062-2.052-1.525-3.267-1.035-1.376.556-2.044 2.127-1.489 3.503l3.106 7.699c.105.261.401.387.662.281 2.238-.903 3.462-3.302 2.936-5.607l.329-.133c.447.745 1.169 1.261 1.991 1.425l-.293 3.832c-.011.138.036.273.127.377.091.104.221.165.359.171.056.002 1.396.05 2.989-.594 1.593-.643 2.525-1.606 2.564-1.647.095-.099.146-.233.14-.371-.005-.139-.067-.268-.169-.359l-2.87-2.557c.478-.688.64-1.561.445-2.408l.328-.132c1.219 2.021 3.764 2.9 6.002 1.998zm-5.323-2.881c-.036-.066-.236-.394-.694-.213l-.042.018-.012.004-1.078.435c-.26.104-.387.401-.282.662.312.772.147 1.657-.41 2.201-.101.1-.156.236-.153.376.003.142.065.274.17.368l2.811 2.503c-.373.298-.995.728-1.811 1.057-.816.329-1.562.451-2.037.496l.287-3.753c.01-.141-.038-.279-.133-.383-.096-.104-.23-.163-.371-.165-.779-.007-1.512-.528-1.823-1.301-.105-.261-.401-.387-.662-.281l-1.077.435-.012.006-.043.017c-.455.187-.373.562-.351.634l.006.021c.59 1.768-.178 3.686-1.763 4.583l-2.903-7.197c-.345-.855.07-1.833.926-2.179.855-.346 1.833.071 2.179.927.105.261.401.387.662.281l1.235-.499c.26-.104.386-.4.281-.662l-1.137-2.818.23-.092c.156-.063.334.012.397.169l1.022 2.534c.105.261.402.388.663.282l1.401-.565c.261-.105.387-.401.282-.662l-1.022-2.535c-.063-.156.013-.335.169-.397l.229-.093 1.137 2.817c.105.261.401.387.662.282l1.235-.498c.261-.104.387-.401.282-.662-.345-.855.07-1.833.926-2.179.855-.345 1.833.07 2.178.926l2.903 7.198c-1.763.453-3.647-.396-4.449-2.077l-.008-.021zM125.783 62.204c-.261.105-.387.401-.282.663.105.26.402.386.663.281l3.46-1.396c.261-.104.386-.401.281-.662s-.402-.387-.662-.281l-3.46 1.395zM130.78 58.274c-.105-.261-.402-.387-.663-.281l-6.919 2.791c-.261.105-.387.401-.281.662.104.261.401.387.662.282l6.92-2.792c.26-.105.386-.401.281-.662zM137.158 51.742c-.28-.019-.522.193-.541.475-.337 5.044-3.575 9.521-8.25 11.408-6.392 2.577-13.777-.244-16.815-6.424-.124-.252-.429-.356-.681-.231-.252.123-.356.428-.232.68 1.581 3.217 4.304 5.702 7.667 6.997 3.38 1.302 7.089 1.273 10.441-.079 2.53-1.02 4.699-2.731 6.273-4.951 1.532-2.161 2.436-4.695 2.611-7.332.019-.282-.193-.524-.473-.543zM118.089 38.147c-3.352 1.352-6.042 3.905-7.573 7.188-1.523 3.268-1.76 6.945-.667 10.358.086.268.373.415.64.33.268-.087.415-.373.329-.641-2.101-6.558 1.26-13.714 7.652-16.292 6.764-2.729 14.487.555 17.215 7.318.498 1.235.806 2.53.916 3.848.022.28.269.489.548.466l.148-.035c.202-.081.335-.286.317-.515-.118-1.419-.45-2.813-.987-4.145-2.937-7.282-11.253-10.819-18.538-7.88z"/></g></svg>