<svg xmlns="http://www.w3.org/2000/svg" viewBox="0 0 507.93 507.93" enable-background="new 0 0 507.93 507.93"><path d="M495.738 137.4l-44.1-44.1c-13.3-13.3-34.7-13.3-47.9-.1l-53.8 53.8c-13.2 13.2-13.2 34.7 0 47.9l31.8 31.8c-43.1 60-95.8 112.7-155.8 155.8l-31.8-31.8c-13.2-13.2-34.7-13.2-47.9 0l-53.8 53.8c-13.2 13.2-13.2 34.7 0 47.9l44.1 44.1c43.4 43.4 157.2-46 225.1-114l20.1-20.1c68.3-68.2 157.4-181.6 114-225z" fill="#40596B"/><path d="M246.738 211c33.4-21.9 54.6-54.9 54.6-91.9 0-65.8-67.3-119.1-150.3-119.1s-150.3 53.3-150.3 119.2 67.3 119.2 150.3 119.2c15.9 0 31.2-2 45.6-5.6 18.9 22.9 58.6 38.3 98.3 27.1-1-.1-49.5-12.2-48.2-48.9z" fill="#FF7058"/><g fill="#fff"><circle cx="82.638" cy="119.2" r="27.3"/><circle cx="151.038" cy="119.2" r="27.3"/><circle cx="219.338" cy="119.2" r="27.3"/></g></svg>