<svg xmlns="http://www.w3.org/2000/svg" viewBox="0 0 512 512" enable-background="new 0 0 512 512"><path d="M512 317.793h-512v-269.241c0-17.064 13.833-30.897 30.897-30.897h450.207c17.064 0 30.897 13.833 30.897 30.897v269.241z" fill="#38454F"/><g fill="#ECBA16"><path d="M141.241 70.621h-97.103c-4.873 0-8.828-3.955-8.828-8.828s3.955-8.828 8.828-8.828h97.103c4.873 0 8.828 3.955 8.828 8.828s-3.955 8.828-8.828 8.828M256 70.621h-79.448c-4.873 0-8.828-3.955-8.828-8.828s3.955-8.828 8.828-8.828h79.448c4.873 0 8.828 3.955 8.828 8.828s-3.955 8.828-8.828 8.828M97.103 105.931h-52.965c-4.873 0-8.828-3.955-8.828-8.828s3.955-8.828 8.828-8.828h52.966c4.873 0 8.828 3.955 8.828 8.828s-3.956 8.828-8.829 8.828M211.862 105.931h-79.448c-4.873 0-8.828-3.955-8.828-8.828s3.955-8.828 8.828-8.828h79.448c4.873 0 8.828 3.955 8.828 8.828s-3.955 8.828-8.828 8.828M256 105.931h-8.828c-4.873 0-8.828-3.955-8.828-8.828s3.955-8.828 8.828-8.828h8.828c4.873 0 8.828 3.955 8.828 8.828s-3.955 8.828-8.828 8.828"/></g><path d="M361.931 494.345h-211.862c0-19.5 15.81-35.31 35.31-35.31h141.241c19.501-.001 35.311 15.81 35.311 35.31" fill="#E8EDEE"/><path fill="#B0B6BB" d="M317.793 459.034h-123.586l17.655-70.62h88.276z"/><g fill="#E8EDEE"><path d="M481.103 388.414h-450.206c-17.064 0-30.897-13.833-30.897-30.897v-39.724h512v39.724c0 17.064-13.833 30.897-30.897 30.897M119.651 233.448c-2.26 0-4.52-.865-6.241-2.586-3.452-3.452-3.452-9.039 0-12.482l25.529-25.521c3.443-3.443 9.031-3.443 12.482 0 3.443 3.452 3.443 9.039 0 12.482l-25.529 25.521c-1.721 1.721-3.981 2.586-6.241 2.586M215.797 233.448c-2.26 0-4.52-.865-6.241-2.586l-25.529-25.521c-3.443-3.443-3.443-9.031 0-12.482 3.443-3.443 9.039-3.443 12.482 0l25.529 25.521c3.452 3.443 3.452 9.031 0 12.482-1.721 1.721-3.981 2.586-6.241 2.586M248.241 237.276c-2.26 0-4.52-.865-6.241-2.587-3.452-3.452-3.452-9.031 0-12.482l73.49-73.481c3.443-3.452 9.031-3.452 12.482 0 3.443 3.443 3.443 9.031 0 12.482l-73.49 73.481c-1.721 1.722-3.981 2.587-6.241 2.587M418.832 215.793c-2.26 0-4.52-.865-6.241-2.586l-52.012-52.003c-3.443-3.443-3.443-9.031 0-12.482 3.452-3.443 9.039-3.443 12.482 0l52.012 52.003c3.452 3.443 3.452 9.031 0 12.482-1.721 1.721-3.981 2.586-6.241 2.586"/></g><g fill="#25AE88"><path d="M194.207 185.379c0 14.627-11.855 26.483-26.483 26.483s-26.483-11.855-26.483-26.483c0-14.627 11.855-26.483 26.483-26.483s26.483 11.856 26.483 26.483M370.759 141.241c0 14.627-11.855 26.483-26.483 26.483-14.627 0-26.483-11.855-26.483-26.483s11.855-26.483 26.483-26.483c14.627.001 26.483 11.856 26.483 26.483M459.034 229.517c0 14.627-11.855 26.483-26.483 26.483s-26.483-11.855-26.483-26.483 11.855-26.483 26.483-26.483 26.483 11.856 26.483 26.483M256 247.172c0 14.627-11.855 26.483-26.483 26.483s-26.483-11.855-26.483-26.483 11.855-26.483 26.483-26.483 26.483 11.856 26.483 26.483M132.414 247.172c0 14.627-11.855 26.483-26.483 26.483s-26.483-11.855-26.483-26.483 11.855-26.483 26.483-26.483 26.483 11.856 26.483 26.483"/></g></svg>