<svg xmlns="http://www.w3.org/2000/svg" width="283.46" height="283.46" viewBox="0 0 283.46 283.46"><path d="M58.03 105.07l-2.16 2.16m3.6-2.16l-2.16 2.16m3.72-2.16l-2.28 2.16m3.72-2.16l-2.16 2.16m3.6-2.16l-2.16 2.16m3.72-2.16l-2.28 2.16m3.72-2.16l-2.16 2.16m3.6-2.16l-2.16 2.16m3.72-2.16l-2.28 2.16m3.48-1.92l-1.92 1.92m1.92-.48l-.48.48M56.59 105.07l-1.8 1.68-.12.24M252.67 141.31l-10.561 10.56m-110.278 111.84l-10.561 10.56m131.4-131.52l-10.561 10.561m-108.839 110.399l-10.561 10.56m129.961-130.08l-10.561 10.68m-107.4 108.84l-10.56 10.56m128.521-128.52l-10.561 10.561m-105.839 107.399l-10.561 10.56m126.961-127.08l-10.561 10.56m-6.959 8.52l-1.561 1.561m-95.88 95.879l-10.56 10.56m125.521-125.639l-10.561 10.68m-5.519 6.959l-3 3m-94.44 94.44l-10.56 10.56m124.08-124.08l-10.561 10.56m-4.08 5.52l-4.439 4.44m-92.881 93l-10.56 10.56m122.521-122.639l-10.561 10.56m-2.519 4.079l-6 6m-91.44 91.44l-10.56 10.56m121.08-121.2l-10.561 10.68m-1.08 2.52l-6.119 6.121m-91.32 91.319l-10.56 10.56m119.64-119.639l-10.561 10.56m-96.959 98.519l-10.56 10.56m118.08-118.2l-16.199 16.32m-89.881 91.32l-10.56 10.56m116.64-116.76l-14.76 14.881m-89.881 91.319l-10.559 10.56m115.2-115.2l-13.32 13.32m-90.481 92.04l-9.839 9.84m113.64-113.76l-12.359 12.36m-91.442 93l-8.399 8.399m112.2-112.319l-11.76 11.76m-92.041 93.72l-6.958 6.84m110.759-110.76l-11.039 11.16m-92.762 94.2l-5.398 5.399m109.199-109.319l-10.439 10.56m-93.362 94.801l-3.959 3.959m107.76-107.879l-9.84 9.959m-93.961 95.52l-2.52 2.399m106.321-106.319l-9.24 9.24m-94.561 96.121l-.959.959m104.76-104.879l-8.641 8.64m8.641-7.201l-7.92 8.04m8.16-6.72l-7.561 7.68m8.161-6.72l-7.561 7.56m8.16-6.72l-6.24 6.24m6.842-5.4l-1.561 1.56m-82.92 85.92l-1.201 1.201m2.641-1.201l-2.641 2.641m4.08-2.641l-4.08 4.201m5.641-4.201l-5.641 5.641m7.08-5.641l-7.08 7.08m8.522-7.08l-8.521 8.641m10.079-8.641l-10.08 10.08m11.522-10.08l-11.521 11.521m12.96-11.521l-11.881 12m13.442-12l-12 12m13.439-12l-12 12m13.44-12l-11.879 12m13.439-12l-12 12m13.44-12l-12 12m13.439-12l-11.879 12m13.44-12l-12 12m13.439-12l-12 12m13.442-12l-11.881 12m13.439-12l-12 12m13.442-12l-12 12m13.439-12l-11.881 12m13.442-12l-12 12m13.439-12l-12 12m13.439-12l-11.879 12m13.44-12l-12 12m13.439-12l-12 12m13.442-12l-11.881 12m13.439-12l-12 12m13.442-12l-12.002 12m13.441-12l-11.881 12m13.442-12l-12 12m13.439-12l-12 12m13.44-12l-11.879 12m13.439-12l-12 12m13.44-12l-12 12m13.439-12l-11.879 12m13.44-12l-12 12m13.439-12l-12 12m13.442-12l-11.881 12m13.439-12l-12 12m13.442-12l-12 12m13.439-12l-11.881 12m14.16-12.719l-12.719 12.719m14.161-12.719l-12.721 12.719m14.16-12.719l-12.6 12.719m14.161-12.719l-12.721 12.719m21.6-21.6l-.119.12m-7.321 8.761l-12.72 12.719m21-21l-4.799 4.801m5.638-4.081l-20.279 20.28m21.119-19.68l-19.68 19.68m20.522-19.08l-19.08 19.079m20.039-18.479l-18.48 18.479m19.32-17.878l-17.879 17.879m18.719-17.16l-17.28 17.16m18.12-16.56l-16.559 16.56m17.398-15.959l-15.959 15.959m16.44-14.879l-15 14.879m12.84-11.28l-11.28 11.28m11.28-9.84l-9.84 9.84m9.84-8.4l-8.4 8.399m8.4-6.839l-6.84 6.84m6.84-5.4l-5.4 5.399m5.4-3.958l-3.959 3.959m3.959-2.4l-2.4 2.399m2.4-.958l-.959.959m-117.721-133.92v27m-7.44-27v27m-7.32-27v26.16m-7.44-26.16v27m-7.44-15.24v15.239m0-26.999v5.4m-7.44 19.801v1.799m0-27v18.84m-7.44-18.84v27m-7.32-27v26.16m-7.44-26.16v27m-7.44-27v27m-12-62.28l-.36.36M37.03 263.71l-10.56 10.56m106.441-106.32l-5.641 5.521m-11.88 13.319l-6.96 7.08m-69.84 69.84l-10.56 10.56m104.881-104.879l-4.08 4.08m-13.441 14.879l-6.96 6.961m-68.4 68.399l-10.56 10.56m103.441-103.44l-2.641 2.641m-14.88 16.319l-6.96 6.96m-66.96 66.96l-10.56 10.56m102.001-101.879l-1.201 1.08m-88.68 90.239l-10.56 10.56m82.92-83.04l-6.96 7.08m-63.96 65.4l-10.56 10.56m81.48-81.48l-6.96 6.96m-62.52 63.96l-10.56 10.56m80.04-80.04l-6.96 6.96m-60.96 62.52l-10.56 10.56m78.48-78.6l-6.96 7.08m-59.52 60.96l-10.56 10.56m77.04-77.04l-6.96 6.96m-58.08 59.52l-10.56 10.56m75.6-75.6l-6.96 6.961m-56.52 58.079l-10.56 10.56m74.04-74.16l-6.96 7.08m-55.08 56.52l-10.56 10.56m72.6-72.6l-6.96 6.961m-53.64 55.079l-10.56 10.56m71.16-71.16l-6.96 6.96m-52.08 53.64l-10.56 10.56m69.6-69.719l-6.96 7.08m-50.64 52.079l-10.56 10.56m68.16-68.16l-6.96 6.96m-49.2 50.64l-10.56 10.56m66.72-66.719l-6.96 6.959m-47.64 49.2l-10.56 10.56m65.16-65.28l-6.96 7.08m-46.2 47.64l-10.56 10.56m63.72-63.719l-6.96 6.959m-44.76 46.2l-10.56 10.56m62.28-62.28l-6.96 7.08m-43.2 44.64l-10.56 10.56m60.72-60.84l-6.96 7.08m-41.76 43.2l-10.56 10.56m59.28-59.28l-6.96 6.96m-40.32 41.76l-10.56 10.56m57.84-57.84l-6.96 7.08m-38.76 40.2l-10.56 10.56m56.28-56.4l-6.96 7.08m-37.32 38.76l-10.56 10.56m54.84-54.84l-6.96 6.961m-35.88 37.319l-10.56 10.56m53.4-53.4l-6.96 7.08m-34.8 36.12l-10.08 10.2m51.84-51.959l-6.96 7.08m-34.8 36.24l-8.64 8.639m50.4-50.4l-6.96 6.96m-34.8 36.24l-7.2 7.199m48.96-48.958l-6.96 7.08m-34.8 36.119l-5.64 5.76m47.4-47.52l-6.96 7.08m-34.8 36.24l-4.2 4.199m45.96-45.958l-6.96 6.959m6.96-5.52l-6.96 7.08m-34.8 34.68l-2.76 2.76m171.601-171.6l-.361.36m-126.72 128.16l-6.96 7.079m-34.8 34.681l-1.2 1.319m171.48-171.599l-1.801 1.8m-126.719 128.28l-6.96 6.96m137.041-137.04l-3.361 3.36m-126.72 128.16l-6.96 7.079m138.48-138.599l-4.801 4.8m-126.719 128.161l-6.96 7.079m139.92-140.04l-6.24 6.24m-126.72 128.28l-6.96 6.96m141.48-141.48l-7.801 7.8m-126.719 128.161l-6.96 7.079m142.92-143.04l-9.24 9.24m-126.72 128.16l-6.96 7.08m144.24-144.36l-9.84 9.96m-127.44 128.881l-6.96 6.959m144.24-144.36l-8.4 8.52m-128.88 130.32l-6.96 7.08m144.24-144.36l-6.959 6.96m-130.321 131.76l-6.96 7.08m-1.2 1.2l-.36.24m145.8-145.8l-5.4 5.52m-131.88 133.32l-8.52 8.52m145.8-145.92l-3.959 4.08m-133.321 134.76l-8.52 8.521m145.8-145.801l-2.52 2.52m-134.76 136.2l-8.52 8.521m145.8-145.801l-.959 1.08m-136.321 137.76l-8.52 8.521m8.52-7.081l-8.52 8.521m-1.68 3.239l-.36.36m10.56-10.56l-8.52 8.4m-.24 1.8l-1.8 1.8m10.56-10.56l-8.52 8.521m8.52-7.08l-10.56 10.56m10.56-9.001l-10.56 10.56m10.56-9.119l-10.56 10.56m10.56-9.121l-10.56 10.561m138.721-138.721l-1.441 1.44m-126.72 128.281l-10.56 10.56m140.16-140.281l-2.881 2.88m-126.599 128.16l-10.56 10.56m141.601-141.6l-4.441 4.44m-125.16 126.6l-10.56 10.56m141.6-141.6l-5.881 5.88m-123.599 125.16l-10.56 10.56m141.48-141.6l-7.32 7.32m-122.16 123.72l-10.56 10.56m141.6-141.6l-8.881 8.88m-120.719 122.16l-10.56 10.56m141.6-141.6l-10.32 10.32m-119.16 120.72l-10.56 10.56m140.28-140.4l-10.561 10.56m-117.719 119.28l-10.56 10.56m138.84-138.96l-10.561 10.68m-116.278 117.72l-10.561 10.56m137.4-137.4l-10.561 10.56m-114.719 116.28l-10.56 10.56m135.84-135.96l-10.561 10.56m-113.278 114.84l-10.561 10.56m134.4-134.52l-10.561 10.68m-111.839 113.28l-10.56 10.56M27.07 201.07l-10.56 10.68m202.56-202.56l-9.359 9.36m-147.241 148.8l-6.48 6.36m-28.92 28.921l-10.56 10.56m203.16-203.161l-8.4 8.52m-147.36 148.8l-6.48 6.36m-30.36 30.36l-10.56 10.561m203.16-203.041l-6.959 6.96m-147.361 148.8l-6.48 6.36m-31.8 31.8l-10.56 10.68m203.16-203.16l-5.52 5.52m-147.24 148.8l-6.48 6.36m-33.36 33.36l-10.56 10.561m203.16-203.161l-3.959 4.08m-147.361 148.8l-6.48 6.36m-34.8 34.8l-10.56 10.56m203.16-203.04l-2.52 2.52m-147.36 148.8l-6.48 6.36m-36.24 36.24l-10.56 10.681m203.16-203.161l-1.08 1.08m-191.52 192.96l-10.56 10.56m54.84-54.72l-6.48 6.36m-37.8 39.24l-10.56 10.56m56.28-56.16l-6.48 6.36m-39.24 40.681l-10.56 10.68m57.72-57.721l-6.48 6.36m-40.68 42.24l-10.56 10.56m59.28-59.16l-6.48 6.36m-42.24 43.681l-10.56 10.56m60.72-60.601l-6.48 6.36m-43.68 45.12l-10.56 10.68m62.16-62.16l-6.48 6.36m-45.12 46.681l-10.56 10.56m63.72-63.601l-6.48 6.36m-46.68 48.12l-10.56 10.561m65.16-65.041l-6.48 6.36m-48.12 49.56l-10.56 10.68m66.6-66.6l-6.48 6.36m8.04-6.36l-6.48 6.36m-51.12 51.12l-10.56 10.561m226.201-226.201l-.602.6m-155.999 157.56l-6.48 6.36m-52.56 52.56l-10.56 10.56m227.76-227.64l-2.16 2.04m-154.56 156.12l-6.48 6.36m-54 54l-10.56 10.681m229.201-229.201l-3.602 3.48m-152.999 154.68l-6.48 6.36m-55.56 55.56l-10.56 10.56m230.64-230.64l-5.041 5.04m-151.559 153.12l-6.48 6.36m-57 57l-10.56 10.56m232.201-232.08l-6.602 6.48m-150.119 151.68l-6.48 6.36m-58.44 58.44l-10.56 10.68m233.64-233.64l-8.041 7.92m-148.559 150.24l-6.48 6.36m-60 60l-10.56 10.56m235.08-235.08l-9.48 9.48m-147.12 148.68l-6.48 6.36m-61.44 61.44l-10.56 10.56m236.16-236.16l-10.08 10.2m-146.16 147.6l-6.48 6.36m-62.88 62.88l-10.56 10.68m236.16-236.28l-8.641 8.76m-146.039 147.6l-6.48 6.36m-64.44 64.44l-10.56 10.56m236.16-236.16l-7.199 7.2m-146.041 147.6l-6.48 6.36m-65.88 65.88l-10.56 10.56m236.16-236.16l-5.641 5.76m-146.159 147.6l-6.48 6.36m-67.32 67.32l-10.56 10.68m236.16-236.28l-4.199 4.32m-146.041 147.6l-6.48 6.36m-68.88 68.88l-10.56 10.56m236.16-236.16l-2.76 2.76m-146.04 147.6l-6.48 6.36m-70.32 70.32l-10.56 10.56m236.16-236.16l-1.199 1.32m-224.401 225.721l-10.56 10.68m88.8-88.801l-6.48 6.36m-71.76 73.32l-10.56 10.56m90.36-90.24l-6.48 6.36m-73.32 74.761l-10.56 10.56m91.8-91.681l-6.48 6.36m-74.76 76.32l-10.56 10.56m93.24-93.24l-6.48 6.36m-76.2 77.761l-10.56 10.56m94.8-94.681l-6.48 6.36m-77.52 79.08l-10.8 10.681m96.24-96.121l-6.48 6.36m7.92-6.36l-7.32 7.32m-78.36 78.36l-12 12m98.52-98.52l-.48.48m-86.04 87.481l-12 12m99.96-99.961l-9.6 9.601m-78.36 79.919l-12 11.88m101.52-101.4l-11.16 11.041m-78.36 79.92l-12 12m102.96-102.961l-12.6 12.601m-78.36 79.799l-12 12m104.4-104.4l-14.04 14.041m8.52-7.08l-8.52 8.52m-78.36 78.48l-12 11.879m105.96-105.84l-6.96 6.961m-.12 1.559l-8.52 8.521m-78.36 78.359l-12 12m107.401-107.4l-6.96 6.961m-1.561 3l-8.28 8.279m-78.6 78.6l-10.92 10.92m107.039-106.92l-6.239 6.121m-3 4.439l-6.96 7.08m-78.72 78.72l-10.56 10.56m106.921-106.92l-6.121 6.121m-4.56 6l-6.96 6.959m-77.28 77.28l-10.56 10.56m106.92-106.92l-6.12 6.121m-6 7.439l-6.96 6.96m-75.84 75.84l-10.56 10.56m107.041-106.92l-6.24 6.121m-7.441 8.879l-6.96 7.08m-74.28 74.28l-10.56 10.56m106.92-106.92l-6.12 6.121m-9 10.439l-6.96 6.96m-72.84 72.84l-10.56 10.56m106.92-106.92l-6.119 6.121m-10.441 11.879l-6.96 6.961M27.07 140.47l-10.56 10.56m141.84-141.84l-9.24 9.36m-34.8 36.12l-6 6.12m-81.24 81.12l-10.56 10.561m143.4-143.281l-9.359 9.36m-36.241 37.68l-6 6m-81.24 81.12l-10.56 10.68m144.84-144.84l-9.359 9.36m-37.681 39.12l-6 6.12m-81.24 81.12l-10.56 10.561m146.279-146.281l-9.238 9.36m-39.241 40.56l-6 6.12m-81.24 81.12l-10.56 10.56m147.84-147.72l-9.359 9.36m-40.681 42.12l-6 6m-81.24 81.12l-10.56 10.681m149.279-149.281l-9.359 9.36m-42.12 43.56l-6 6.12m-81.24 81.12l-10.56 10.56m150.72-150.72l-9.24 9.36m-43.68 45l-6 6.12m-81.24 81.12l-10.56 10.56m152.279-152.16l-9.359 9.36m-45.12 46.56l-6 6m-81.24 81.12l-10.56 10.68m153.72-153.72l-9.361 9.36m-46.559 48l-6 6.12m-81.24 81.12l-10.56 10.56m155.16-155.16l-9.24 9.36m-48.12 49.44l-6 6.12m-81.24 81.12l-10.56 10.56m156.72-156.6l-9.361 9.36m-49.559 51l-6 6m-81.24 81.12l-10.56 10.68m158.16-158.16l-9.359 9.36m-51.001 52.44l-6 6.12m-81.24 81.12l-10.56 10.56m159.599-159.6l-9.24 9.36m-52.559 53.88l-6 6.12m-81.24 81.12l-10.56 10.56m161.16-161.04l-9.359 9.36m-54.001 55.44l-6 6m-81.24 81.12l-10.56 10.68m162.599-162.6l-9.359 9.36m-55.44 56.88l-6 6.12m-81.24 81.12l-10.56 10.56m164.041-164.04l-9.24 9.36m-57.001 58.32l-6 6.12m-81.24 81.12l-10.56 10.56m165.599-165.48l-9.359 9.36m-58.44 59.88l-6 6m-81.24 81.121l-10.56 10.68m167.041-167.041l-9.361 9.36m-59.88 61.32l-6 6.12m-81.24 81.12l-10.56 10.56m168.48-168.48l-9.24 9.36m-61.44 62.76l-6 6.12m-81.24 81.121l-10.56 10.56m170.041-169.921l-9.361 9.36m-62.88 64.32l-6 6m-81.24 81.12l-10.56 10.68m171.48-171.48l-9.361 9.36m-64.319 65.76l-6 6.12m-81.24 81.121l-10.56 10.56m172.92-172.921l-9.24 9.36m-65.88 67.32l-6 6m-81.24 81.12l-10.56 10.561m174.48-174.361l-9.361 9.36m-67.319 68.76l-6 6m-80.52 80.4l-11.28 11.4m175.92-175.92l-9.359 9.36m-68.761 70.2l-6 6.12m-79.8 79.681l-12 12m177.359-177.361l-9.24 9.36m-70.319 71.76l-6 6m-79.8 79.8l-12 11.88m178.92-178.8l-9.359 9.36m-71.761 73.2l-6 6m-79.8 79.801l-12 12m180.359-180.361l-9.359 9.36m-73.2 74.64l-6 6.12m-79.8 79.68l-12 12m181.801-181.8l-9.24 9.36m-74.761 76.2l-6 6m-79.8 79.801l-12 11.879m183.359-183.24l-9.359 9.36m-76.2 77.64l-6 6m-79.8 79.8l-12 12m184.801-184.8l-9.361 9.36m-77.64 79.08l-6 6.12m-79.8 79.68l-12 12m186.24-186.24l-9.24 9.36m-165 166.44l-.36.359m86.16-86.159l-6 6m-81.24 81.121l-10.56 10.56m187.801-187.681l-9.361 9.36m-80.64 82.08l-6 6m-81.24 81.12l-10.56 10.68m189.24-189.24l-9.359 9.36m-147.241 148.8l-.6.48m65.76-65.76l-4.56 4.56m-82.68 82.681l-10.56 10.56m190.679-190.681l-9.24 9.36m-147.359 148.8l-2.04 2.041m65.76-65.761l-3 3m-84.24 84.12l-10.56 10.561m192.24-192.121l-9.359 9.36m-147.361 148.8l-3.48 3.48m65.76-65.76l-1.56 1.56m-85.68 85.56l-10.56 10.68m193.679-193.68l-9.359 9.36m-147.24 148.8l-5.04 4.92m65.76-65.76l-.12.12m-87.12 87.12l-10.56 10.561m195.121-195.121l-9.24 9.36m-147.361 148.8l-6.48 6.36m-21.48 21.48l-10.56 10.56m196.679-196.56l-9.359 9.36m-147.36 148.8l-6.48 6.36m-22.92 22.921l-10.56 10.68m198.121-198.121l-9.361 9.36m-147.24 148.8l-6.48 6.36m-24.48 24.48l-10.56 10.56m199.56-199.56l-9.24 9.36m-147.36 148.8l-6.48 6.36m-25.92 25.921l-10.56 10.56m201.121-201.001l-9.361 9.36m-147.36 148.8l-6.48 6.36M69.43 44.83l-10.56 10.56m-31.8 31.8l-10.56 10.56m88.56-88.56h.12m-50.52 51.84l-2.88 3m19.2-19.2l-10.56 10.56m-33.36 33.24l-10.56 10.56m90.12-90l-1.56 1.44m-50.4 51.96l-2.88 2.88m20.64-20.64l-10.56 10.56m-34.8 34.68l-10.56 10.56m91.56-91.44l-3 2.88m-50.4 51.96l-2.88 3m22.08-22.2l-10.56 10.56m-36.24 36.24l-10.56 10.56m93-93l-4.44 4.44m-50.4 51.84l-2.88 3m23.64-23.64l-10.56 10.56m-37.8 37.68l-10.56 10.56m94.56-94.44l-6 5.88m-50.4 51.96l-2.88 2.88m25.08-25.08l-10.56 10.56m-39.24 39.12l-10.56 10.56m96-95.88l-7.44 7.32m-50.4 51.96l-2.88 3m26.52-26.64l-10.56 10.56m-40.68 40.68l-10.56 10.56m97.44-97.44l-8.88 8.88m-50.4 51.84l-2.88 3m28.08-28.08l-10.56 10.56m-42.24 42.12l-10.56 10.56m98.76-98.76l-10.2 10.2m-50.4 51.96l-2.88 2.88m29.52-29.52l-10.56 10.56m-43.68 43.56l-10.56 10.68m98.76-98.76l-10.2 10.08m-50.4 51.96l-2.88 3m29.64-29.76l-9.24 9.24m-45.12 45.12l-10.56 10.56m98.76-98.76l-10.2 10.2m-50.4 51.84l-2.88 3m29.64-29.76l-7.68 7.8m-46.68 46.56l-9.12 9.12m97.32-97.32l-10.2 10.2m-50.4 51.96l-2.88 2.88m29.64-29.76l-6.24 6.36m-48.12 48l-7.56 7.68m95.76-95.76l-10.2 10.08m-50.4 51.96l-2.88 3m29.64-29.76l-4.8 4.8m-48.72 48.72l-6.96 6.96m94.32-94.32l-10.2 10.2m-50.4 51.84l-2.88 3m29.64-29.76l-3.24 3.36m-48.72 48.72l-7.08 6.96m92.88-92.88l-10.2 10.2m-50.4 51.96l-2.88 2.88m-20.88 20.88l-3.12 3.12m53.64-53.76l-1.8 1.92m-52.56 52.44l-3.12 3.24m91.32-91.32l-10.2 10.08m-50.4 51.96l-2.88 3m-19.44 19.32l-3.12 3.12m52.2-52.2l-.36.36m-54 54l-1.68 1.68m89.88-89.88l-10.2 10.2m-72.36 73.8l-2.04 2.04m24-24l-2.88 3m-24.72 24.6l-.24.24m88.44-88.44l-10.2 10.2m-50.4 51.96l-2.88 2.88m-19.08 18.96l-.48.6m83.04-83.04l-10.2 10.08m-50.4 51.96l-2.88 3m63.48-63.6l-10.2 10.2m-50.4 51.84l-2.88 3m63.48-63.6l-10.2 10.2m-50.4 51.96l-2.88 2.88m63.48-63.48l-10.2 10.08m-50.4 51.96l-2.88 3m63.48-63.6l-10.2 10.2m-50.4 51.84l-2.88 3m63.48-63.6l-10.2 10.2m-50.4 51.96l-2.88 2.88m-34.44 34.44l-.84.84m98.76-98.76l-10.2 10.08m-50.4 51.96l-2.88 3m-33 32.88l-2.28 2.28m98.76-98.76l-10.2 10.2m-50.4 51.84l-2.88 3m-31.56 31.44l-3.72 3.72m98.76-98.76l-10.2 10.2m-50.4 51.96l-2.88 2.88m-30 30l-5.28 5.28m98.76-98.76l-10.2 10.08m-50.4 51.96l-2.88 3m-28.56 28.44l-6.72 6.72m98.76-98.76l-10.2 10.2m-50.4 51.84l-2.88 3m63.48-63.6l-10.2 10.2m-80.4 80.4l-8.16 8.16m130.08-129.96l-.359.36m-31.921 33.36l-9.24 9.12m-50.4 50.52l-2.88 2.88m63.48-63.48l-.72.6m-88.32 88.44l-9.72 9.72m131.519-131.52l-1.799 1.8m-91.56 93l-2.88 3m62.52-62.64l-9.24 9.24m-78 78l-10.56 10.56m132.961-132.96l-3.24 3.36m-91.561 92.88l-1.8 1.8m61.44-61.44l-9.24 9.24m-78 78l-10.56 10.56m134.519-134.4l-4.799 4.8m-91.56 93l-.36.24m60-59.88l-8.04 8.04m-79.2 79.08l-10.56 10.68m135.961-135.96l-6.24 6.24m-31.921 33.36l-6.6 6.6m-80.64 80.64l-10.56 10.56m137.4-137.4l-7.68 7.8m-31.92 33.24l-6 6.12m-81.24 81.12l-10.56 10.56m138.961-138.84l-9.24 9.24m-31.921 33.36l-6 6m-81.24 81.12l-10.56 10.68m140.4-140.4l-9.359 9.36m-33.241 34.68l-6 6.12M17.71 44.83l-1.2 1.08m2.64-1.08l-2.64 2.52m4.08-2.52l-4.08 4.08m5.64-4.08l-5.64 5.52m7.08-5.52l-7.08 6.96m8.52-6.96l-8.52 8.52m10.08-8.52l-10.08 9.96m11.52-9.96l-11.52 11.4m12.96-11.4l-12.96 12.96m14.52-12.96l-14.52 14.4m15.96-14.4l-15.96 15.84m17.4-15.84l-17.4 17.4m18.96-17.4l-18.96 18.84m20.4-18.84l-20.4 20.28m21.84-20.28l-21.84 21.84m23.4-21.84l-23.4 23.28m24.84-23.28l-24.84 24.72m26.28-24.72l-26.28 26.28m27.84-26.28l-27.84 27.72m10.56-9.12l-9.24 9.36m27.96-27.96l-17.28 17.28m-1.44 2.88l-7.8 7.8m27.96-27.96l-17.28 17.28m-2.88 4.32l-6.36 6.36m28.08-27.96l-17.28 17.28m-4.44 5.76l-4.8 4.92m27.96-27.96l-17.28 17.28m-5.88 7.32l-3.36 3.36m27.96-27.96l-17.28 17.28m-7.32 8.76l-1.92 1.92m28.08-27.96l-17.28 17.28m-8.88 10.2l-.36.48m27.96-27.96l-17.28 17.28m-20.76 22.2l-.12.12m39.6-39.6l-17.28 17.28m-20.76 22.2l-1.56 1.56m41.16-41.04l-17.28 17.28m-20.88 22.2l-3 3m42.6-42.48l-17.28 17.28m-20.76 22.2l-4.56 4.56m44.04-44.04l-17.28 17.28m-20.76 22.2l-6 6m45.6-45.48l-17.28 17.28m-20.88 22.2l-7.44 7.44m47.04-46.92l-17.28 17.28m-20.76 22.2l-9 9m48.48-48.48l-17.28 17.28m6.96-5.52l-5.4 5.52m-22.32 22.2l-10.44 10.44m50.04-49.92l-10.56 10.56m-1.32 2.76l-3.96 3.96m-23.64 23.52l-10.56 10.56m51.48-51.36l-10.56 10.56m-2.76 4.2l-2.88 3" stroke="#818181" stroke-width=".12" stroke-linecap="round" stroke-linejoin="round" stroke-miterlimit="10" fill="none"/><path d="M253.391 255.07l12.119-16.92m-12.6 16.56l12.24-16.92m-11.759-58.8l12.119 16.8m-12.6-16.56l12.24 16.92m1.92 37.321v-33m-.599 33v-33" stroke="#41BBEC" stroke-width=".36" stroke-linecap="round" stroke-linejoin="round" stroke-miterlimit="10" fill="none"/><path stroke="#41BBEC" stroke-width=".36" stroke-linecap="round" stroke-linejoin="round" stroke-miterlimit="10" fill="none" d="M117.43 13.75h26.519v.48h-26.519zM221.83 13.03h18.119v.48h-18.119zM248.35 21.91h.48v24.36h-.48zM248.35 114.67h.48v16.2h-.48zM246.43 129.31l-6-10.44m5.519 10.8l-6-10.56"/><path stroke="#41BBEC" stroke-width=".36" stroke-linecap="round" stroke-linejoin="round" stroke-miterlimit="10" fill="none" d="M20.59 74.95h.48v7.2h-.48zM20.59 113.35h.48v15.48h-.48zM248.35 48.43h.48v25.56h-.48zM248.35 76.15h.48v24.36h-.48zM75.91 269.71h26.76v.601h-26.76z"/><path stroke="#818181" stroke-width=".12" stroke-linecap="round" stroke-linejoin="round" stroke-miterlimit="10" fill="none" d="M141.071 153.79h-37.921M99.67 153.79h-40.08l4.56-3.479M95.71 167.35l14.88-27m-18.36 27l14.88-27m-47.52 13.44l4.56 3.601"/><path stroke="#818181" stroke-width=".12" stroke-linecap="round" stroke-linejoin="round" stroke-miterlimit="10" fill="none" d="M142.15 153.79l-.12-.479-.36-.361-.599-.24-.481.24-.48.361-.119.479.119.601.48.359.481.24.599-.24.36-.359z"/><path stroke="#41BBEC" stroke-width=".36" stroke-linecap="round" stroke-linejoin="round" stroke-miterlimit="10" fill="none" d="M151.029 268.75h15.84v.6h-15.84z"/><path stroke="#3F5BA9" stroke-width=".72" stroke-linecap="round" stroke-linejoin="round" stroke-miterlimit="10" fill="none" d="M39.43 62.23h-3.6l-.24.12-.24.24-.84 2.64-.36 2.76.12 2.76.48 2.4.96 2.28M35.35 70.63l.48 2.16.84 2.04M35.71 75.43l.96 1.08 1.32.72 1.44.24M36.67 74.83l.72.84.96.48 1.08.12M36.55 67.99l-.96 1.2-.24 1.44M39.43 67.03l-1.44.24-1.44.72M39.43 68.35h-1.44l-.24.12-.12.24v1.2l.36.72.6.6.84.24M39.43 63.91l-4.68.48"/><path stroke="#3F5BA9" stroke-width=".72" stroke-linecap="round" stroke-linejoin="round" stroke-miterlimit="10" fill="none" d="M36.91 65.47l-.12-.12-.24-.12-.12.12-.12.12.12.24.12.12.24-.12zM43.03 62.23h-3.6M43.51 62.59l-.24-.24-.24-.12M44.59 70.75l.12-2.76-.36-2.76-.84-2.64M43.15 75.43l.96-2.28.48-2.4M42.19 74.83l.84-2.04.48-2.16M39.43 77.47l1.44-.24 1.32-.72.96-1.08M39.43 76.27l1.08-.12.96-.48.72-.84M43.51 70.63l-.24-1.44-.96-1.2-1.32-.72-1.56-.24M39.43 68.35h1.44M41.23 68.71l-.12-.24-.24-.12M41.23 68.71v1.2M39.43 71.47l.84-.24.6-.6.36-.72M44.11 64.39l-4.68-.48"/><path stroke="#3F5BA9" stroke-width=".72" stroke-linecap="round" stroke-linejoin="round" stroke-miterlimit="10" fill="none" d="M42.55 65.47l-.12-.12-.12-.12-.24.12-.12.12.12.24.24.12.12-.12z"/><path d="M132.911 239.71v3m0-6.72v3m0-6.72v3m0-6.719v3m0-6.721v3m0-6.72v3m0-6.719v3m0-6.601v2.88m0-6.6v2.88m0-6.6v2.881m0-6.6v3m0-6.721v3m0-6.72v3m0-6.719v3m0-6.721v3m0-6.72v3m0-6.719v3m0-6.721v3m0-6.119v2.399M132.911 243.43v2.4M231.791 256.27v3m0-6.719v3m0-6.601v2.88m0-6v2.28M231.791 259.99v2.28M139.27 245.83h-3m6.721 0h-3m6.718 0h-3m6.721 0h-3m6.72 0h-3m6.719 0h-3m6.602 0h-2.881m6.599 0h-2.879m6.6 0h-2.881m6.6 0h-3m6.721 0h-3m6.72 0h-3m6.719 0h-3m6.721 0h-3m6.72 0h-3m6.719 0h-3m6.602 0h-2.881m6.6 0h-2.879m6.599 0h-2.881m6.602 0h-3m6.719 0h-3m6.72 0h-3m6.719 0h-3m6.721 0h-3m6.721 0h-3m6.48 0h-2.762M135.55 245.83h-2.639" stroke="#5D8BB9" stroke-width=".48" stroke-linecap="round" stroke-linejoin="round" stroke-miterlimit="10" fill="none"/><path d="M220.629 262.27l37.561-37.56m-43.68 37.56l43.68-43.68m-49.92 43.68l49.92-49.799m-56.042 49.799l56.041-56.039m-62.16 56.039l62.16-62.159m-68.4 62.159l65.76-65.76m-71.879 65.76l69.359-69.359m-75.599 69.359l72.959-72.959m-79.08 72.959l76.561-76.439m-82.681 76.439l80.039-80.039m-86.279 80.039l83.76-83.639m-89.881 83.639l87.24-87.239m-93.478 87.239l90-89.879m-96.12 89.879l91.319-91.319m-97.44 91.319l97.44-97.439m-103.678 97.439l99.958-99.84m-106.079 99.84l105-104.879m-111.12 104.879l111.12-111.12m8.399-14.519l4.92-5.041m-126.72 126.721l113.401-113.281m-113.401 107.16l113.401-113.28m2.158-2.279l11.16-11.16m-138.238 138.239l3-3m8.519-14.64l126.719-126.84m-144.358 144.48l9.12-9.12m8.519-14.76l126.719-126.72m-150.598 150.6l16.92-16.8m6.959-13.2l126-126m-156 156l23.041-23.04m6.959-13.199l119.88-119.761m-155.999 156l29.16-29.159m6.959-13.201l116.639-116.52m-158.998 158.88l35.4-35.399m6.959-13.081l116.64-116.64m-165.119 165.12l41.521-41.52m6.958-13.2l116.639-116.52m-171.238 171.24l47.641-47.64m6.958-13.2l116.64-116.64m-177.479 177.48l53.881-53.88m6.958-13.08l116.64-116.64m-183.599 183.6l60-60m24.481-30.6l5.76-5.761m-23.282 23.161l17.041-17.039m8.641-8.641l90.958-90.84m-189.839 189.72l66.24-66.239m6.959-13.08l10.92-10.92m14.762-14.761l90.958-90.96m-195.959 195.96l72.36-72.36m6.959-13.2l4.801-4.68m20.881-20.999l90.958-90.84m-202.079 202.079l78.48-78.479m32.641-38.881l90.958-90.959m-203.519 203.519l78.359-78.359m33.962-40.201l91.198-91.08m-203.519 203.52l78.359-78.36m27.841-34.08l97.319-97.199m-204.959 204.839l74.28-74.28m27.241-33.36l103.438-103.44m-204.959 204.96l68.04-68.16m27.24-33.36l109.679-109.56m-204.959 204.841l61.92-61.921m27.239-33.36l115.8-115.799m-204.959 204.959l55.8-55.8m27.12-33.36l120.72-120.6m-203.64 203.52l49.56-49.56m27.24-33.36l120.6-120.6m-197.4 197.4l43.44-43.44m27.24-33.36l120.599-120.6m-191.279 191.28l37.319-37.32m27.121-33.36l120.72-120.6m-185.16 185.04l31.079-31.08m.361-6.36l1.08-1.199m25.799-25.801l120.6-120.6m-178.919 178.92l24.96-24.96m27.119-33.36l33.841-33.719m-60.72 60.719l7.32-7.319m54.719-54.72l85.559-85.561m-172.798 172.68l21.48-21.36m24.48-30.72l35.279-35.159m-79.799 79.799l31.08-31.2m54.719-54.72l79.319-79.32m-166.558 166.561l1.079-.961m38.761-45l41.399-41.399m6-6.001l73.2-73.2m-158.999 159l31.08-31.08m1.08-7.32l47.64-47.52m5.999-6l67.081-67.08m-154.081 153.96l32.281-32.28m54.719-60.84l60.84-60.84m-148.079 148.08l81.239-81.12m6-12.239l54.719-54.721m-141.958 141.84l81.239-81.119m6-12.241l48.479-48.48m-135.718 135.721l81.239-81.121m-37.199 30.961l37.199-37.2m6-6.001l42.36-42.36m-129.599 129.6l42.12-42.119m-4.08-2.161l43.199-43.08m6-6l36.241-36.24m-123.48 123.36l35.88-35.88m-3.96-2.16l49.319-49.2m6-6.12l30.001-30m-117.24 117.24l29.76-29.76m-2.16-3.96l47.88-47.879m11.759-11.76l23.881-23.881m-111.12 111l24.72-24.6m2.88-9.12l41.761-41.64m18.839-18.96l16.801-16.68m-105.001 104.881l24.72-24.601m2.88-9.12l35.521-35.52m25.079-25.079l10.561-10.561m-98.761 98.76l24.72-24.6m2.88-9.12l29.4-29.399m-51.36 51.24l19.08-18.961m63.48-63.48l4.439-4.44m-92.639 92.52l5.04-5.039m22.56-28.68l23.16-23.16m-48.72 48.719l22.68-22.56m2.88-9.12l17.04-17.039m-44.64 44.519l24.72-24.6m2.88-9.12l10.921-10.8m-38.521 38.4l24.72-24.6m2.88-9.12l4.681-4.68m-32.281 32.28l24.72-24.6m-24.72 18.36l19.44-19.32m-19.44 13.201l13.2-13.2m-13.2 6.959l7.079-6.96m-7.079.84l.96-.84M235.51 261.551l15.961-15.961m-22.801 16.68l31.32-31.319" stroke="#ED2224" stroke-width=".12" stroke-linecap="round" stroke-linejoin="round" stroke-miterlimit="10" fill="none"/><path stroke="#ED2224" stroke-width="1.08" stroke-linecap="round" stroke-linejoin="round" stroke-miterlimit="10" fill="none" d="M28.51 263.71v-10.92h-1.44v-67.44h1.44v-11.64h-1.44v-66.48h5.64v-3.12h-5.64v-42h24.72v45.12h19.32v-2.16h-16.44v-49.68h53.64v51.24h6v-64.08h.96v-22.8h116.759v87.96h10.08v28.92h-13.318v25.8h4.799v9.961h6.359l20.041 27.719v33.72l-20.041 27.721h-7.679v.719h-116.88v-88.799h17.521v-6.121h8.16v-27h-81.481v27h-11.04v6.36h58.32v11.04h1.56v68.04h-1.56v10.92z"/><path stroke="#010101" stroke-width=".12" stroke-linecap="round" stroke-linejoin="round" stroke-miterlimit="10" fill="none" d="M115.27 13.15h2.16v1.68h-2.16zM143.949 13.15h2.281v1.68h-2.281zM219.67 12.43h2.16v1.68h-2.16zM239.949 12.43h2.16v1.68h-2.16zM247.75 19.75h1.68v2.16h-1.68zM247.75 100.51h1.68v2.16h-1.68zM247.75 132.67v-1.8h1.68v1.8M249.43 112.75v1.92h-1.68v-1.92"/><path stroke="#010101" stroke-width=".12" stroke-linecap="round" stroke-linejoin="round" stroke-miterlimit="10" fill="none" d="M246.91 129.07l1.08 1.92-1.439.84-1.08-1.92zM239.83 116.71l1.08 1.92-1.439.84-1.08-1.92zM19.99 72.79h1.68v2.16h-1.68zM19.99 82.15h1.68v2.16h-1.68zM19.99 111.07h1.68v2.28h-1.68zM19.99 128.83h1.68v2.16h-1.68zM105.07 48.55h-.84v1.68h.84M81.43 50.23h.84v-1.68h-.84"/><path stroke="#010101" stroke-width=".12" stroke-linecap="round" stroke-linejoin="round" stroke-miterlimit="10" fill="none" d="M247.75 46.27h1.68v2.16h-1.68zM247.75 73.99h1.68v2.16h-1.68zM73.63 269.23h2.28v1.56h-2.28zM102.67 269.23h2.16v1.56h-2.16z"/><path fill-rule="evenodd" clip-rule="evenodd" fill="#010101" d="M81.31 48.55h.36l-.36-3.6M81.67 48.55l-.36-3.6.36-.36M81.31 44.95l.36-.36-64.92.36M81.67 44.59l-64.92.36-.36-.36M16.75 44.95l-.36-.36.36 27.96M16.39 44.59l.36 27.96-.36.48M16.75 72.55l-.36.48 10.56-.48M16.39 73.03l10.56-.48.36.48M26.95 72.55l.36.48-.36-11.16M27.31 73.03l-.36-11.16.36.48M26.95 61.87l.36.48 24.6-.48M27.31 62.35l24.6-.48-.36.48M51.91 61.87l-.36.48.36 44.76M51.55 62.35l.36 44.76-.36.36M51.91 107.11l-.36.36 3.12-.36M51.55 107.47l3.12-.36v.36M54.43 105.07h.48l-.48-49.92M54.91 105.07l-.48-49.92.48.48M54.43 55.15l.48.48 25.56-.48M54.91 55.63l25.56-.48v.48M80.47 55.15v.48l.84-.48M80.47 55.63l.84-.48.36.48M81.31 55.15l.36.48-.36-7.08M81.67 55.63l-.36-7.08h.36M19.99 84.55v-.36l-3.24.36M19.99 84.19l-3.24.36-.36-.36M16.75 84.55l-.36-.36.36 26.76M16.39 84.19l.36 26.76-.36.36M16.75 110.95l-.36.36 10.56-.36M16.39 111.31l10.56-.36.36.36M26.95 110.95l.36.36-.36-4.2M27.31 111.31l-.36-4.2.36.36M26.95 107.11l.36.36 5.28-.36M27.31 107.47l5.28-.36.36.36M32.59 107.11l.36.36-.36-3.12M32.95 107.47l-.36-3.12.36-.48M32.59 104.35l.36-.48-6 .48M32.95 103.87l-6 .48.36-.48M26.95 104.35l.36-.48-.36-19.32M27.31 103.87l-.36-19.32.36-.36M26.95 84.55l.36-.36-7.32.36M27.31 84.19l-7.32.36v-.36M19.99 131.23v-.36l-3.24.36M19.99 130.87l-3.24.36-.36-.36M16.75 131.23l-.36-.36.36 143.16M16.39 130.87l.36 143.16-.36.48M16.75 274.03l-.36.48 57.12-.48M16.39 274.51l57.12-.48.36.48M73.51 274.03l.36.48-.36-10.56M73.87 274.51l-.36-10.56.36-.479M73.51 263.95l.36-.479-45.6.479M73.87 263.471l-45.6.479.48-.479M28.27 263.95l.48-.479-.48-10.441M28.75 263.471l-.48-10.441.48-.479M28.27 253.03l.48-.479-1.8.479M28.75 252.551l-1.8.479.36-.479M26.95 253.03l.36-.479-.36-67.441M27.31 252.551l-.36-67.441.36.361M26.95 185.11l.36.361.96-.361M27.31 185.471l.96-.361.48.361M28.27 185.11l.48.361-.48-11.521M28.75 185.471l-.48-11.521.48-.36M28.27 173.95l.48-.36-1.8.36M28.75 173.59l-1.8.36.36-.36M26.95 173.95l.36-.36-.36-42.36M27.31 173.59l-.36-42.36.36-.36M26.95 131.23l.36-.36-7.32.36M27.31 130.87l-7.32.36v-.36M105.07 270.79h-.48l.48 3.24M104.59 270.79l.48 3.24-.48.48M105.07 274.03l-.48.48 44.039-.48M104.59 274.51l44.039-.48.361.48M148.629 274.03l.361.48-.361-12M148.99 274.51l-.361-12 .361-.36M148.629 262.51l.361-.36-33.84.36M148.99 262.15l-33.84.36.48-.36M115.15 262.51l.48-.36-.48-88.92M115.63 262.15l-.48-88.92.48.48M115.15 173.23l.48.48 17.04-.48M115.63 173.71l17.04-.48.36.48M132.67 173.23l.36.48-.36-6.239M133.03 173.71l-.36-6.239.36-.361M132.67 167.471l.36-.361-9.119.361M133.03 167.11l-9.119.361.359-.361M123.911 167.471l.359-.361-.359-.36M124.27 167.11l-.359-.36.359-.48M123.911 166.75l.359-.48-9.48.48M124.27 166.27l-9.48.48-.36-.48M114.79 166.75l-.36-.48.36 1.201M114.43 166.27l.36 1.201-.36-.361M114.79 167.471l-.36-.361-65.76.361M114.43 167.11l-65.76.361-.36-.361M48.67 167.471l-.36-.361.36 6.48M48.31 167.11l.36 6.48-.36.36M48.67 173.59l-.36.36 58.8-.36M48.31 173.95l58.8-.36-.48.36M107.11 173.59l-.48.36.48 10.681M106.63 173.95l.48 10.681-.48.359M107.11 184.631l-.48.359 1.92-.359M106.63 184.99l1.92-.359-.36.359M108.55 184.631l-.36.359.36 68.04M108.19 184.99l.36 68.04-.36-.479M108.55 253.03l-.36-.479-1.08.479M108.19 252.551l-1.08.479-.48-.479M107.11 253.03l-.48-.479.48 11.399M106.63 252.551l.48 11.399-.48-.479M107.11 263.95l-.48-.479-1.56.479M106.63 263.471l-1.56.479-.48-.479M105.07 263.95l-.48-.479.48 7.319M104.59 263.471l.48 7.319h-.48"/><path stroke="#010101" stroke-width=".12" stroke-linecap="round" stroke-linejoin="round" stroke-miterlimit="10" fill="none" d="M148.869 268.27h2.16v1.561h-2.16zM166.869 268.27h2.16v1.561h-2.16z"/><path fill-rule="evenodd" clip-rule="evenodd" fill="#010101" d="M168.789 268.27h.481l-.481-6.12M169.27 268.27l-.481-6.12.481.36M168.789 262.15l.481.36 62.759-.36M169.27 262.51l62.759-.36.481.36M232.029 262.15l.481.36-.481-1.08M232.51 262.51l-.481-1.08.481.36M232.029 261.43l.481.36 7.32-.36M232.51 261.79l7.32-.36.24.36M239.83 261.43l.24.36 6.241-9.36M240.07 261.79l6.241-9.36.119.6M246.311 252.43l.119.6 8.759 5.76M246.43 253.03l8.759 5.76-.599.12M255.189 258.79l-.599.12-1.92 3.36M254.59 258.91l-1.92 3.36-.481-.12M252.67 262.27l-.481-.12.481 12.36M252.189 262.15l.481 12.36-.481-.48M252.67 274.51l-.481-.48-83.4.48M252.189 274.03l-83.4.48.481-.48M168.789 274.51l.481-.48-.481-5.76M169.27 274.03l-.481-5.76h.481M251.35 178.03l-.241-.36-4.798 3.84M251.109 177.67l-4.798 3.84.119-.48M246.311 181.51l.119-.48-6.6-8.52M246.43 181.03l-6.6-8.52.24-.36M239.83 172.51l.24-.36-6.599.36M240.07 172.15l-6.599.36.359-.36M233.471 172.51l.359-.36-.359-6M233.83 172.15l-.359-6 .359.36M233.471 166.15l.359.36 8.16-.36M233.83 166.51l8.16-.36.36.36M241.99 166.15l.36.36-.36-34.08M242.35 166.51l-.36-34.08.36.48M241.99 132.43l.36.48 10.56-.48M242.35 132.91l10.56-.48-.359.48M252.91 132.43l-.359.48.359 39M252.551 132.91l.359 39-.359.12M252.91 171.91l-.359.12 2.638 3.12M252.551 172.03l2.638 3.12-.478-.12M255.189 175.15l-.478-.12-3.361 3M254.711 175.03l-3.361 3-.241-.36M252.67 102.91v-.36l-10.32.36M252.67 102.55l-10.32.36-.36-.36M242.35 102.91l-.36-.36.36 9.96M241.99 102.55l.36 9.96-.36.48M242.35 112.51l-.36.48 10.561-.48M241.99 112.99l10.561-.48.359.48M252.551 112.51l.359.48-.359-10.08M252.91 112.99l-.359-10.08.359-.36M252.551 102.91l.359-.36-3 .36M252.91 102.55l-3 .36v-.36M242.35 12.43h-.36l.36 7.08M241.99 12.43l.36 7.08-.36.48M242.35 19.51l-.36.48 10.561-.48M241.99 19.99l10.561-.48.359.48M252.551 19.51l.359.48-.359-10.68M252.91 19.99l-.359-10.68.359-.36M252.551 9.31l.359-.36-10.56.36M252.91 8.95l-10.56.36-.36-.36M242.35 9.31l-.36-.36.36 3.48M241.99 8.95l.36 3.48h-.36M146.35 9.19h-.36l.36 9.12M145.99 9.19l.36 9.12-.36.36M146.35 18.31l-.36.36 73.44-.36M145.99 18.67l73.44-.36.48.36M219.43 18.31l.48.36-.48-9.36M219.91 18.67l-.48-9.36.48-.36M219.43 9.31l.48-.36-73.56.36M219.91 8.95l-73.56.36-.36-.36M146.35 9.31l-.36-.36.36 2.28M145.99 8.95l.36 2.28h-.36M115.03 13.15h.48l-.48-3.84M115.51 13.15l-.48-3.84.48-.36M115.03 9.31l.48-.36-10.2.36M115.51 8.95l-10.2.36-.36-.36M105.31 9.31l-.36-.36.36 46.2M104.95 8.95l.36 46.2-.36.48M105.31 55.15l-.36.48 3.48-.48M104.95 55.63l3.48-.48-.36.48M108.43 55.15l-.36.48.36 50.76M108.07 55.63l.36 50.76-.36.36M108.43 106.39l-.36.36 6-.36M108.07 106.75l6-.36.48.36M114.07 106.39l.48.36-.48-64.32M114.55 106.75l-.48-64.32.48.36M114.07 42.43l.48.36.48-.36M114.55 42.79l.48-.36.48.36M115.03 42.43l.48.36-.48-29.64M115.51 42.79l-.48-29.64h.48M59.47 167.35h.36l-.36-27.12M59.83 167.35l-.36-27.12.36.36M59.47 140.23l.36.36 81.48-.36M59.83 140.59l81.48-.36-.479.36M141.31 140.23l-.479.36.479 26.881M140.831 140.59l.479 26.881-.479-.361M141.31 167.471l-.479-.361-7.92.361M140.831 167.11l-7.92.361v-.361M228.791 140.83v1.44h12.959M228.791 140.83h12.959v1.44M228.791 142.27l11.039 1.32h1.92M228.791 142.27h12.959v1.32M239.83 143.59v11.881h1.92M239.83 143.59h1.92v11.881M239.83 155.471l-11.039 1.319h12.959M239.83 155.471h1.92v1.319M228.791 156.79v1.32h12.959M228.791 156.79h12.959v1.32"/><path stroke="#010101" stroke-width=".12" stroke-linecap="round" stroke-linejoin="round" stroke-miterlimit="10" fill="none" d="M228.791 136.63h12.959v25.799h-12.959zM228.791 140.83h12.959m-12.959 17.28h12.959M228.791 142.27l11.039 1.32v11.881l-11.039 1.319"/><path stroke="#010101" stroke-width=".12" stroke-linecap="round" stroke-linejoin="round" stroke-miterlimit="10" fill="none" d="M238.51 149.471l-.119-.721-.481-.72-.599-.479-.84-.121-.84.121-.602.479-.478.72-.121.721.121.84.478.599.602.481.84.119.84-.119.599-.481.481-.599z"/><path fill-rule="evenodd" clip-rule="evenodd" fill="#010101" d="M51.91 107.11v.36l19.08-.36M51.91 107.47l19.08-.36.36.36M70.99 107.11l.36.36-.36-2.16M71.35 107.47l-.36-2.16.36-.48M70.99 105.31l.36-.48-16.92.48M71.35 104.83l-16.92.48.48-.48M54.43 105.31l.48-.48-.48-1.44M54.91 104.83l-.48-1.44h.48"/><path d="M240.791 23.47h-8.281m8.281.84h-8.281m8.281.84h-8.281m8.281.96h-8.281m8.281.84h-8.281m8.281.84h-8.281m8.281.84h-8.281m8.281.84h-8.281m8.281.84h-8.281m8.281.84h-8.281m8.281.96h-8.281m8.281.84h-8.281m8.281.84h-8.281m8.281.84h-8.281m8.281.84h-8.281m8.281.84h-8.281m8.281.96h-8.281m8.281.84h-8.281m8.281.84h-8.281m8.281.84h-8.281m8.281.84h-8.281m8.281.84h-8.281m8.281.84h-8.281m8.281.96h-8.281m8.281.84h-8.281m8.281.84h-8.281m8.281.84h-8.281m8.281.84h-8.281m8.281.84h-8.281m8.281.96h-8.281m8.281.84h-8.281m8.281.84h-8.281m8.281.84h-8.281m8.281.84h-8.281m8.281.84h-8.281m8.281.84h-8.281m8.281.96h-8.281m8.281.84h-8.281m8.281.84h-8.281m8.281.84h-8.281m8.281.84h-8.281m8.281.84h-8.281m8.281.96h-8.281m8.281.84h-8.281m8.281.84h-8.281m8.281.84h-8.281m8.281.84h-8.281m8.281.84h-8.281m8.281.84h-8.281m8.281.96h-8.281m8.281.84h-8.281m8.281.84h-8.281m8.281.84h-8.281m8.281.84h-8.281m8.281.84h-8.281m8.281.96h-8.281m8.281.84h-8.281m8.281.84h-8.281m8.281.84h-8.281m8.281.84h-8.281m8.281.84h-8.281m8.281.84h-8.281m8.281.96h-8.281m8.281.84h-8.281m8.281.84h-8.281m8.281.84h-8.281m8.281.84h-8.281m8.281.84h-8.281m8.281.96h-8.281m8.281.84h-8.281m8.281.84h-8.281m8.281.84h-8.281m8.281.84h-8.281m8.281.84h-8.281m8.281.84h-8.281m8.281.96h-8.281m8.281.84h-8.281m8.281.84h-8.281m8.281.84h-8.281m8.281.84h-8.281m8.281.84h-8.281m8.281.96h-8.281m8.281.84h-8.281m8.281.84h-8.281m8.281.84h-8.281m8.281.84h-8.281m8.281.84h-8.281m8.281.84h-8.281m8.281.96h-8.281m8.281.84h-8.281" stroke="#010101" stroke-width=".12" stroke-linecap="round" stroke-linejoin="round" stroke-miterlimit="10" fill="none"/><path stroke="#010101" stroke-width=".84" stroke-linecap="round" stroke-linejoin="round" stroke-miterlimit="10" fill="none" d="M232.51 22.99h8.281v76.92h-8.281z"/></svg>