<svg xmlns="http://www.w3.org/2000/svg" width="85.04" height="85.04" viewBox="99.21 0 85.04 85.04" enable-background="new 99.21 0 85.04 85.04"><path fill="#46B45A" d="M141.73 0c-23.483 0-42.52 19.036-42.52 42.521 0 23.481 19.037 42.519 42.521 42.519 23.482 0 42.519-19.037 42.519-42.519 0-23.485-19.038-42.521-42.52-42.521z"/><path fill="#fff" d="M153.995 46.227c-.452-1.096-1.126-2.096-2.021-3-.896-.903-1.996-1.707-3.303-2.41 1.356-1.138 2.398-2.305 3.127-3.502.728-1.196 1.092-2.632 1.092-4.306 0-1.272-.252-2.46-.754-3.565s-1.246-2.075-2.234-2.912c-.987-.837-2.15-1.477-3.489-1.921-1.339-.443-2.821-.666-4.444-.666-1.858 0-3.54.264-5.046.791s-2.766 1.227-3.778 2.096c-1.013.871-1.783 1.787-2.31 2.75s-.791 1.879-.791 2.749c0 .904.28 1.628.841 2.172.561.544 1.175.816 1.845.816.569 0 1.071-.101 1.506-.301s.736-.477.904-.829c.285-.653.598-1.347.941-2.083.343-.736.707-1.339 1.092-1.808.385-.468.908-.845 1.569-1.13.661-.284 1.502-.427 2.523-.427 1.507 0 2.703.465 3.59 1.394.888.929 1.332 2.038 1.332 3.327 0 1.691-.558 2.988-1.67 3.892-1.113.904-2.44 1.356-3.98 1.356h-1.029c-1.188 0-2.084.247-2.687.74-.603.494-.904 1.143-.904 1.946 0 .82.251 1.461.753 1.921.502.461 1.213.69 2.134.69.201 0 .653-.033 1.355-.101.703-.066 1.222-.1 1.557-.1 1.908 0 3.397.557 4.47 1.669 1.07 1.113 1.605 2.648 1.605 4.606 0 1.323-.313 2.486-.941 3.49-.627 1.004-1.422 1.762-2.385 2.272s-1.963.766-3 .766c-1.808 0-3.21-.565-4.206-1.694-.996-1.131-1.929-2.858-2.799-5.186-.134-.385-.418-.715-.854-.991s-.887-.414-1.356-.414c-.938 0-1.72.298-2.347.892-.628.594-.941 1.377-.941 2.348 0 .753.263 1.707.791 2.861.527 1.155 1.306 2.272 2.335 3.352s2.339 1.98 3.929 2.699c1.59.72 3.39 1.08 5.398 1.08 1.975 0 3.779-.314 5.411-.941 1.632-.628 3.042-1.498 4.23-2.611s2.088-2.381 2.699-3.804c.61-1.423.917-2.896.917-4.419.001-1.273-.225-2.456-.677-3.554z"/></svg>