<svg xmlns="http://www.w3.org/2000/svg" width="85.04" height="85.04" viewBox="0 0 85.04 85.04"><path fill="#46B45A" d="M42.52 0c-23.483 0-42.52 19.036-42.52 42.521 0 23.481 19.037 42.519 42.521 42.519 23.481 0 42.521-19.037 42.521-42.519 0-23.485-19.042-42.521-42.522-42.521z"/><path d="M41.352 41.057c-.817 0-1.413-.306-1.787-.918h-.034l.015.41c.013.241.02.505.02.791v2.021h-.483v-7.71h.41l.093.757h.029c.365-.573.947-.859 1.748-.859.716 0 1.262.235 1.638.705.375.471.564 1.155.564 2.054 0 .872-.198 1.549-.593 2.028-.397.481-.936.721-1.62.721zm-.01-.43c.543 0 .964-.202 1.262-.605s.447-.969.447-1.694c0-1.56-.563-2.339-1.689-2.339-.619 0-1.073.17-1.362.51-.29.341-.435.895-.435 1.663v.156c0 .83.139 1.423.417 1.777s.732.532 1.36.532zm6.914.332l-.122-.84h-.039c-.267.342-.541.584-.823.725-.281.143-.613.213-.998.213-.521 0-.926-.134-1.216-.4s-.435-.637-.435-1.108c0-.518.216-.92.646-1.206.432-.286 1.057-.438 1.873-.454l1.011-.029v-.352c0-.505-.103-.886-.308-1.143s-.535-.386-.991-.386c-.491 0-1.001.137-1.528.41l-.181-.42c.583-.273 1.159-.41 1.729-.41.583 0 1.019.151 1.306.454.289.303.433.774.433 1.416v3.53h-.357zm-1.953-.341c.566 0 1.014-.162 1.34-.486.328-.323.491-.773.491-1.35v-.522l-.928.039c-.745.036-1.276.152-1.595.349-.316.197-.476.504-.476.921 0 .332.102.59.306.774.204.183.491.275.862.275zm3.74-2.847c0-2.305.649-3.618 1.948-3.94.456-.114.893-.211 1.312-.291l1.11-.212.088.42-.586.112c-.967.183-1.604.322-1.914.42-.439.127-.784.432-1.032.913-.25.481-.393 1.141-.428 1.978h.029c.348-.413.688-.709 1.016-.887.328-.177.668-.266 1.016-.266.65 0 1.148.21 1.494.63s.518 1.018.518 1.792c0 .823-.199 1.466-.596 1.926-.396.461-.955.691-1.675.691-.729 0-1.295-.285-1.696-.854-.402-.57-.604-1.38-.604-2.432zm2.339 2.847c.557 0 .982-.186 1.276-.557.295-.371.442-.905.442-1.602 0-.661-.131-1.16-.394-1.496-.262-.338-.646-.506-1.154-.506-.377 0-.743.118-1.096.354-.354.236-.662.563-.926.979 0 .583.072 1.094.217 1.533.146.439.355.765.633.977s.612.318 1.002.318zm8.081-2.32c0 .866-.21 1.542-.63 2.028-.42.487-.999.73-1.738.73-.466 0-.876-.112-1.23-.337s-.626-.547-.815-.967-.283-.905-.283-1.455c0-.866.21-1.54.63-2.024.42-.482.996-.725 1.729-.725.729 0 1.302.245 1.716.734.414.492.621 1.164.621 2.016zm-4.189 0c0 .729.16 1.298.48 1.706.321.409.774.613 1.36.613s1.039-.204 1.36-.613c.32-.408.48-.977.48-1.706 0-.732-.162-1.301-.486-1.704-.323-.403-.778-.605-1.364-.605s-1.038.201-1.354.604c-.318.401-.476.97-.476 1.705zm6.05-2.646v1.777c0 .449.108.773.327.972s.553.298 1.006.298c.318 0 .623-.057.913-.171s.591-.296.903-.547v-2.329h.483v5.308h-.483v-2.52c-.326.251-.646.43-.959.537-.314.107-.654.161-1.019.161-.544 0-.954-.142-1.233-.425-.277-.283-.417-.691-.417-1.226v-1.836h.479zm5.869 0v3.838l-.029 1.001 3.149-4.839h.645v5.308h-.464v-3.813l.02-1.025-3.149 4.839h-.63v-5.308h.458zm6.001 0v3.838l-.029 1.001 3.149-4.839h.645v5.308h-.464v-3.813l.02-1.025-3.149 4.839h-.63v-5.308h.458zm1.655-.752c-.485 0-.854-.108-1.108-.325-.254-.216-.402-.565-.444-1.047h.43c.049.358.159.611.332.76.173.147.439.222.801.222.358 0 .624-.076.798-.229.175-.153.281-.403.32-.752h.43c-.07.914-.589 1.371-1.559 1.371zM43.413 51.761h-.479v-1.802h-4.063v1.802h-.479v-2.261h.352c.443-.622.785-1.343 1.025-2.163s.368-1.716.381-2.686h2.554v4.849h.708v2.261zm-1.192-2.261v-4.399h-1.65c-.078 1.761-.504 3.228-1.279 4.399h2.929zm4.463.557c-.771 0-1.373-.237-1.805-.713-.431-.476-.646-1.141-.646-1.997 0-.847.209-1.524.625-2.034.416-.509.979-.764 1.685-.764.625 0 1.118.218 1.479.654s.542 1.028.542 1.777v.391h-3.823c.006.729.177 1.286.51 1.67.334.384.813.576 1.434.576.303 0 .568-.021.799-.063.229-.042.52-.134.871-.273v.439c-.299.13-.576.219-.83.267-.255.047-.534.07-.841.07zm-.142-5.078c-.511 0-.921.168-1.23.506-.31.336-.489.822-.542 1.457h3.281c0-.615-.133-1.096-.4-1.443-.268-.346-.637-.52-1.109-.52zm3.97-.327v2.329h3.369v-2.329h.479v5.308h-.479v-2.559h-3.369v2.559h-.483v-5.308h.483zm6.109 2.236h1.87c1.246 0 1.87.49 1.87 1.47 0 .505-.175.897-.522 1.18-.348.281-.848.422-1.499.422h-2.202v-5.308h.483v2.236zm0 .459v2.153h1.797c.462 0 .816-.098 1.062-.293.246-.195.369-.481.369-.859 0-.352-.109-.606-.327-.764-.218-.158-.596-.237-1.133-.237h-1.768zM28.248 59.761h-6.885v-27.656c0-3.301.078-5.918.234-7.852-.45.469-1.001.986-1.655 1.553-.655.566-2.847 2.363-6.577 5.391l-3.457-4.365 12.598-9.902h5.742v42.831z" enable-background="new" fill="#fff"/></svg>