<svg xmlns="http://www.w3.org/2000/svg" width="85.04" height="85.04" viewBox="99.21 0 85.04 85.04" enable-background="new 99.21 0 85.04 85.04"><path fill="#46B45A" d="M141.73 0c-23.483 0-42.52 19.036-42.52 42.521 0 23.481 19.037 42.519 42.521 42.519 23.482 0 42.519-19.037 42.519-42.519 0-23.485-19.038-42.521-42.52-42.521z"/><path fill="#fff" d="M146.99 24.924c-.535-.686-1.247-1.029-2.134-1.029-.787 0-1.323.15-1.606.452-.285.301-.896 1.104-1.833 2.41-.938 1.306-2.013 2.485-3.226 3.54-1.214 1.054-2.833 2.059-4.858 3.013-1.355.636-2.302 1.155-2.837 1.557-.536.402-.804 1.029-.804 1.883 0 .737.272 1.386.816 1.946.543.561 1.167.841 1.87.841 1.473 0 4.335-1.632 8.587-4.896v22.848c0 1.339.31 2.352.929 3.037.619.687 1.439 1.029 2.46 1.029 2.293 0 3.439-1.682 3.439-5.046v-28.747c0-1.205-.268-2.151-.803-2.838z"/></svg>