<svg xmlns="http://www.w3.org/2000/svg" width="85.04" height="85.04" viewBox="99.21 0 85.04 85.04" enable-background="new 99.21 0 85.04 85.04"><path fill="#46B45A" d="M141.73 0c-23.483 0-42.52 19.036-42.52 42.521 0 23.481 19.037 42.519 42.521 42.519 23.482 0 42.519-19.037 42.519-42.519 0-23.485-19.038-42.521-42.52-42.521z"/><path fill="#fff" d="M154.271 44.333c-.553-1.49-1.335-2.783-2.348-3.879s-2.193-1.941-3.54-2.536-2.816-.892-4.406-.892c-1.657 0-3.155.327-4.494.979-1.339.653-2.578 1.657-3.716 3.013.217-4.553.937-7.716 2.159-9.49.603-.87 1.343-1.561 2.222-2.071.878-.511 1.761-.766 2.648-.766 1.105 0 2.076.306 2.913.917.837.611 1.448 1.418 1.833 2.423.284.787.729 1.402 1.33 1.846.604.443 1.256.665 1.959.665.803 0 1.465-.28 1.983-.841.519-.561.778-1.184.778-1.871 0-1.138-.414-2.326-1.243-3.565-.829-1.238-2.059-2.276-3.69-3.113s-3.52-1.255-5.662-1.255c-2.226 0-4.209.418-5.95 1.255s-3.222 2.075-4.444 3.716-2.159 3.708-2.812 6.201c-.653 2.494-.979 5.323-.979 8.486 0 3.884.54 7.168 1.619 9.854s2.64 4.717 4.683 6.088c2.042 1.373 4.469 2.06 7.281 2.06 2.444 0 4.632-.54 6.565-1.62 1.934-1.079 3.439-2.581 4.52-4.506s1.619-4.067 1.619-6.428c0-1.624-.275-3.18-.828-4.67zm-7.532 10.205c-1.104 1.381-2.503 2.072-4.192 2.072-1.775 0-3.248-.754-4.419-2.26-1.172-1.507-1.758-3.39-1.758-5.649 0-1.405.289-2.632.866-3.679.578-1.045 1.339-1.845 2.285-2.397s1.938-.829 2.975-.829c1.088 0 2.084.289 2.988.866.904.578 1.615 1.414 2.134 2.511s.778 2.406.778 3.929c0 2.244-.553 4.055-1.657 5.436z"/></svg>