<svg xmlns="http://www.w3.org/2000/svg" width="85.01" height="85.04" viewBox="99.21 0 85.01 85.04" enable-background="new 99.21 0 85.01 85.04"><path fill="#46B45A" d="M141.73 0c-23.483 0-42.52 19.036-42.52 42.521 0 23.481 19.037 42.519 42.521 42.519 23.482 0 42.519-19.037 42.519-42.519 0-23.485-19.038-42.521-42.52-42.521z"/><path fill="#fff" d="M154.912 47.973c-.779-.352-1.813-.527-3.102-.527h-1.079v-19.433c0-2.913-1.272-4.369-3.816-4.369-.787 0-1.46.264-2.021.791-.561.527-1.276 1.377-2.146 2.548l-13.307 17.8-.929 1.23c-.251.335-.494.682-.729 1.042s-.41.703-.527 1.029c-.118.327-.176.649-.176.967 0 1.239.397 2.218 1.192 2.938.795.72 1.987 1.079 3.578 1.079h12.604v4.67c0 1.256.288 2.206.865 2.85.578.645 1.335.967 2.272.967.954 0 1.716-.313 2.284-.941.569-.627.854-1.585.854-2.874v-4.67h1.531c1.272 0 2.226-.222 2.862-.665.636-.443.954-1.15.954-2.122.003-1.189-.387-1.958-1.164-2.31zm-10.457-.527h-10.796l10.796-14.587v14.587z"/></svg>