<svg xmlns="http://www.w3.org/2000/svg" width="85.04" height="85.04" viewBox="99.21 0 85.04 85.04" enable-background="new 99.21 0 85.04 85.04"><path fill="#46B45A" d="M141.73 0c-23.483 0-42.52 19.036-42.52 42.521 0 23.481 19.037 42.519 42.521 42.519 23.482 0 42.519-19.037 42.519-42.519 0-23.485-19.038-42.521-42.52-42.521z"/><path fill="#fff" d="M154.146 43.729c-.604-1.456-1.432-2.715-2.486-3.778s-2.281-1.896-3.678-2.499c-1.398-.603-2.9-.903-4.507-.903-2.009 0-4.202.636-6.578 1.908l1.431-8.134h11.925c1.238 0 2.176-.268 2.813-.804.636-.536.954-1.238.954-2.109 0-1.992-1.306-2.988-3.917-2.988h-13.256c-1.44 0-2.478.326-3.113.979-.636.653-1.072 1.699-1.306 3.139l-2.109 12.026c-.185 1.055-.276 1.624-.276 1.708 0 .753.317 1.427.954 2.021.636.595 1.364.892 2.185.892.753 0 1.711-.439 2.875-1.318 1.163-.879 2.054-1.494 2.674-1.845.619-.352 1.649-.527 3.088-.527 1.172 0 2.234.281 3.188.841.954.561 1.716 1.411 2.285 2.548.569 1.139.854 2.511.854 4.118 0 1.489-.264 2.82-.791 3.992-.527 1.171-1.276 2.092-2.247 2.762-.971.669-2.101 1.004-3.389 1.004-1.406 0-2.678-.414-3.816-1.243-1.139-.829-2.042-1.987-2.711-3.478-.687-1.623-1.732-2.436-3.139-2.436-.82 0-1.502.293-2.046.879-.544.586-.816 1.205-.816 1.858 0 1.071.39 2.322 1.168 3.753.778 1.432 2.1 2.699 3.967 3.804 1.866 1.104 4.297 1.657 7.293 1.657 2.678 0 5.042-.586 7.093-1.758 2.05-1.171 3.619-2.753 4.707-4.745 1.088-1.991 1.633-4.201 1.633-6.628-.003-1.675-.304-3.239-.906-4.696z"/></svg>