<svg xmlns="http://www.w3.org/2000/svg" viewBox="0 0 507.9 507.9" enable-background="new 0 0 507.9 507.9"><path d="M21.1 398.95h465.7c11.7 0 21.1-9.5 21.1-21.1v-85.5c0-11-3.7-21.7-10.6-30.4l-84.5-106.1c-9.2-11.6-23.3-18.4-38.1-18.4h-86.3v156.1h-288.4v84.3c0 11.6 9.5 21.1 21.1 21.1z" fill="#FFD15C"/><path d="M473.3 276.85l-82.5-103.5c-3.9-4.9-9.8-7.7-16.1-7.7h-58.1v111.3h156.7v-.1z" fill="#fff"/><path d="M267.3 49.75h-246.2c-11.6 0-21.1 9.5-21.1 21.1v222.6h288.4v-222.6c0-11.6-9.4-21.1-21.1-21.1z" fill="#F2F2F2"/><g fill="#40596B"><circle cx="100.8" cy="398.95" r="59.2"/><circle cx="412.4" cy="398.95" r="59.2"/></g><g fill="#fff"><circle cx="100.8" cy="398.95" r="29.4"/><circle cx="412.4" cy="398.95" r="29.4"/></g><g fill="#CDD6E0"><path d="M24.6 75.35h239.3v28.1h-239.3zM24.6 130.15h239.3v28.1h-239.3zM24.6 184.95h239.3v28.1h-239.3zM24.6 239.85h239.3v28.1h-239.3z"/></g></svg>